<?xml version="1.0" encoding="utf-8"?>
<!-- Generator: Adobe Illustrator 21.1.0, SVG Export Plug-In . SVG Version: 6.00 Build 0)  -->
<svg version="1.1" id="Слой_1" xmlns="http://www.w3.org/2000/svg" xmlns:xlink="http://www.w3.org/1999/xlink" x="0px" y="0px"
	 viewBox="0 0 640 35" enable-background="new 0 0 640 35" xml:space="preserve">
<path fill="#E20613" d="M33.7567,17.7119c0,9.3216-7.5567,16.8783-16.8783,16.8783S0,27.0336,0,17.7119
	S7.5567,0.8336,16.8783,0.8336S33.7567,8.3903,33.7567,17.7119z M16.8783,15.8496c-1.0285,0-1.8624,0.8338-1.8624,1.8624
	c0,1.0285,0.8338,1.8625,1.8624,1.8625s1.8624-0.834,1.8624-1.8625C18.7407,16.6834,17.9069,15.8496,16.8783,15.8496z"/>
<path fill="#FFFFFF" d="M539.1445,13.4213h4.3988c0.2956-0.0029,0.538,0.0429,0.7266,0.1343
	c0.1888,0.0946,0.3304,0.2577,0.4215,0.4923c0.0913,0.2318,0.1354,0.5554,0.1354,0.9703c0,0.4381-0.0472,0.7817-0.1447,1.0334
	c-0.0977,0.2519-0.2486,0.4294-0.4468,0.5325c-0.1983,0.1059-0.4468,0.1545-0.7488,0.1518h-4.3419V13.4213z M539.1445,18.9687
	h2.1713l2.8423,3.9156c0.1371,0.1888,0.3073,0.2405,0.5688,0.2405h3.3764c0.1798,0,0.247-0.191,0.1509-0.3092L544.93,18.735
	c0.6324-0.1087,1.4955-0.467,1.9639-0.754c0.4666-0.2861,0.8304-0.6697,1.0885-1.1505c0.258-0.4839,0.3901-1.0678,0.3932-1.7605
	c-0.0031-0.7013-0.132-1.3024-0.3774-1.8004c-0.2485-0.498-0.5916-0.9018-1.0256-1.2135c-0.4374-0.3121-0.9376-0.5411-1.5038-0.6873
	c-0.5664-0.1429-1.1707-0.2172-1.8123-0.2145h-7.5513c-0.0565,0-0.1069,0.0172-0.1445,0.0458
	c-0.0411,0.0286-0.0599,0.0658-0.0632,0.1087v11.6613c0.0033,0.0431,0.0221,0.0801,0.0632,0.1087
	c0.0376,0.0286,0.088,0.046,0.1445,0.046h2.8317c0.0961,0,0.2076-0.0569,0.2076-0.1547V18.9687z M533.0849,23.1248
	c0.0566,0,0.1038-0.0174,0.1383-0.046c0.0315-0.0286,0.0504-0.0656,0.0504-0.1087v-2.0266c0-0.0427-0.0189-0.0801-0.0504-0.1087
	c-0.0345-0.0286-0.0817-0.046-0.1383-0.046h-7.2302v-2.696h5.701c0.0566,0,0.1039-0.0172,0.1385-0.0458
	c0.0314-0.0286,0.0505-0.066,0.0505-0.1089v-1.9749c0-0.0431-0.0191-0.0803-0.0505-0.1089
	c-0.0346-0.0286-0.0818-0.0458-0.1385-0.0458h-5.701v-2.3186h7.2302c0.0566,0,0.1038-0.0172,0.1383-0.0458
	c0.0315-0.0286,0.0504-0.0658,0.0504-0.1085v-2.0268c0-0.0429-0.0189-0.0801-0.0504-0.1087
	c-0.0345-0.0286-0.0817-0.0458-0.1383-0.0458h-10.2883c-0.0567,0-0.107,0.0172-0.1447,0.0458
	c-0.041,0.0286-0.0599,0.0658-0.063,0.1087v11.6613c0.0031,0.0431,0.022,0.0801,0.063,0.1087
	c0.0377,0.0286,0.088,0.046,0.1447,0.046H533.0849z M515.4153,18.3159h-4.304l2.171-5.4614L515.4153,18.3159z M516.3029,20.5313
	l0.9857,2.4388c0.0458,0.1135,0.1807,0.1547,0.3021,0.1547h3.0942c0.1187,0,0.1719-0.0965,0.1321-0.189l-5.0053-11.6098
	c-0.0208-0.0486-0.0401-0.0954-0.0911-0.1259c-0.0497-0.0296-0.1163-0.0458-0.1919-0.0458h-4.5117
	c-0.0598,0-0.1166,0.0169-0.1667,0.0458c-0.0537,0.031-0.0765,0.077-0.0977,0.1259l-5.0237,11.6271
	c-0.0468,0.1084,0.0629,0.1718,0.1699,0.1718h3.0496c0.134,0,0.2155-0.037,0.2639-0.1547l1.0119-2.4388H516.3029z M495.2731,19.9776
	l-3.0772-8.6689c-0.0409-0.037-0.0944-0.0715-0.1637-0.103c-0.0692-0.0314-0.1352-0.0486-0.1952-0.0515h-5.1722
	c-0.0566,0-0.104,0.0172-0.1385,0.0458c-0.0379,0.0286-0.0598,0.0658-0.0694,0.1087v11.6613
	c0.0069,0.0961,0.1087,0.1547,0.2079,0.1547h2.8316c0.0961,0,0.2076-0.0569,0.2076-0.1547v-9.4974l3.4122,9.4974
	c0.0815,0.074,0.221,0.1547,0.3399,0.1547h3.595c0.1138,0,0.2522-0.0737,0.3209-0.1547l3.3754-9.4974v9.4974
	c0.0069,0.0961,0.1085,0.1547,0.2078,0.1547h2.8317c0.0959,0,0.2076-0.0569,0.2076-0.1547V11.3087
	c0-0.0429-0.0221-0.0801-0.0598-0.1087c-0.041-0.0286-0.088-0.0458-0.1478-0.0458h-5.0783
	c-0.0598,0.0029-0.1225,0.0201-0.1919,0.0515c-0.0691,0.0315-0.1258,0.066-0.1666,0.103L495.2731,19.9776z"/>
<path fill="#FFFFFF" d="M630.4796,18.9685h4.323c0.7173,0,1.3743-0.0768,1.9696-0.2232c0.5953-0.1466,1.1169-0.3824,1.5541-0.6956
	c0.4354-0.3118,0.7809-0.7204,1.0193-1.2108c0.2381-0.4894,0.3652-1.082,0.3652-1.7689c0-0.7013-0.1334-1.3052-0.3776-1.8006
	c-0.2446-0.4961-0.5936-0.9047-1.0257-1.2134c-0.4344-0.3106-0.9398-0.5451-1.5038-0.6873
	c-0.5636-0.1419-1.1758-0.2145-1.8125-0.2145h-7.5511c-0.0513,0-0.1089,0.0205-0.1447,0.0458
	c-0.0375,0.0271-0.063,0.0706-0.063,0.1087v11.6613c0,0.0382,0.0255,0.0816,0.063,0.1087c0.0358,0.0255,0.0882,0.046,0.1447,0.046
	h2.8316c0.0599,0,0.1102-0.0191,0.1481-0.046c0.0355-0.0255,0.0596-0.0656,0.0596-0.1087V18.9685z M630.4796,13.4213h4.3988
	c0.2956,0,0.5399,0.0465,0.7266,0.1402c0.1854,0.0932,0.3335,0.2629,0.4213,0.4923c0.0892,0.2322,0.1354,0.5552,0.1354,0.9644
	c0,0.4267-0.0496,0.7698-0.1444,1.0193c-0.095,0.2496-0.2515,0.4317-0.4471,0.5381c-0.1953,0.1065-0.452,0.1602-0.7487,0.1602
	h-4.3419V13.4213z M621.4678,19.1231c0,0.3294-0.0403,0.6105-0.1289,0.8303c-0.0878,0.2184-0.2504,0.3951-0.4751,0.5209
	c-0.2256,0.1263-0.5484,0.2191-0.9564,0.272c-0.4106,0.0532-0.9354,0.0772-1.5734,0.0772c-0.668-0.0002-1.2155-0.0284-1.6326-0.0832
	c-0.4138-0.0544-0.7372-0.1495-0.9567-0.2775c-0.2191-0.128-0.3707-0.3053-0.4496-0.524c-0.0786-0.2165-0.1133-0.4894-0.1133-0.8156
	v-7.8143c0-0.0429-0.0197-0.082-0.0503-0.1087c-0.0324-0.0279-0.0851-0.0458-0.1385-0.0458h-2.8505
	c-0.0538,0-0.1078,0.0193-0.1447,0.0458c-0.0389,0.0281-0.063,0.0684-0.063,0.1087v7.9345c0,0.9249,0.2532,1.6957,0.7459,2.3043
	c0.4923,0.6081,1.2158,1.0694,2.1646,1.3681c0.9516,0.2999,2.1143,0.4494,3.4889,0.4494c1.3688,0,2.5281-0.1505,3.4738-0.4494
	c0.9489-0.2997,1.6733-0.7592,2.1646-1.3681c0.4906-0.6077,0.7424-1.3769,0.7424-2.3043v-7.9345
	c0-0.0429-0.0227-0.0822-0.0596-0.1087c-0.0389-0.0281-0.091-0.0458-0.1478-0.0458h-2.8315c-0.0538,0-0.1082,0.0193-0.1451,0.0458
	c-0.0389,0.0279-0.063,0.0684-0.063,0.1087V19.1231z M602.9745,20.7547c-0.607,0-1.1204-0.0162-1.5386-0.0572
	c-0.4144-0.0406-0.7538-0.1278-1.0129-0.2605c-0.2584-0.1323-0.4558-0.3392-0.5915-0.6098
	c-0.1364-0.2718-0.2302-0.6391-0.2801-1.0964c-0.0496-0.4544-0.0693-1.0304-0.0693-1.72c0-0.6529,0.0193-1.1946,0.0693-1.6289
	c0.0496-0.4317,0.1437-0.7758,0.2801-1.0334c0.1357-0.2565,0.3339-0.4504,0.5915-0.5752c0.2598-0.1259,0.5984-0.2084,1.0129-0.2463
	c0.4183-0.0381,0.9316-0.0544,1.5386-0.0544c0.6039,0,1.1142,0.0158,1.5259,0.0544c0.412,0.0386,0.7496,0.1209,1.0039,0.2463
	c0.2543,0.1254,0.4517,0.3176,0.585,0.5752c0.133,0.2565,0.226,0.6017,0.2739,1.0334c0.0482,0.4343,0.0661,0.976,0.0661,1.6289
	c0,0.6896-0.0182,1.2657-0.0661,1.72c-0.0483,0.4575-0.1409,0.8254-0.2739,1.0964c-0.1333,0.2716-0.33,0.4768-0.585,0.6098
	c-0.2532,0.1319-0.5922,0.2195-1.0039,0.2605C604.089,20.7383,603.5784,20.7547,602.9745,20.7547z M602.9745,10.8624
	c-0.9688,0-1.8408,0.0534-2.6115,0.1686c-0.7696,0.1153-1.4411,0.3077-2.0164,0.5812c-0.5719,0.2718-1.0515,0.642-1.4287,1.1078
	c-0.3796,0.4687-0.6639,1.054-0.8527,1.7574c-0.1877,0.7008-0.2832,1.54-0.2832,2.5162c0,0.9962,0.0951,1.858,0.2832,2.5816
	c0.1884,0.7237,0.4737,1.3311,0.8527,1.8206c0.3779,0.4882,0.8561,0.8771,1.4287,1.165c0.5743,0.2891,1.2465,0.4956,2.0164,0.6212
	c0.7703,0.1254,1.6427,0.1831,2.6115,0.1831c0.9629,0,1.828-0.0572,2.5925-0.1831c0.7648-0.1261,1.4352-0.3333,2.0044-0.6212
	c0.5715-0.289,1.0474-0.6768,1.4253-1.165c0.379-0.4896,0.6628-1.0973,0.8495-1.8206c0.1864-0.7238,0.2828-1.5855,0.2828-2.5816
	c0-0.9762-0.0968-1.8151-0.2828-2.5162c-0.1871-0.7031-0.4699-1.2886-0.8495-1.7574c-0.3773-0.4658-0.8544-0.8349-1.4253-1.1078
	c-0.5698-0.2725-1.2406-0.466-2.0044-0.5812S603.9374,10.8624,602.9745,10.8624z M585.1768,13.4213h4.3984
	c0.296,0,0.5391,0.042,0.7269,0.1343c0.1891,0.0932,0.33,0.2581,0.4213,0.4923c0.0906,0.2317,0.1354,0.5554,0.1354,0.9703
	c0,0.4381-0.0475,0.7819-0.1447,1.0334c-0.0971,0.2517-0.2494,0.4286-0.4468,0.5325c-0.1985,0.1047-0.4472,0.1518-0.7487,0.1518
	h-4.3419V13.4213z M585.1768,18.9685h2.1714l2.8419,3.9158c0.1371,0.1885,0.3073,0.2405,0.5688,0.2405h3.3766
	c0.1798,0,0.247-0.1912,0.1509-0.3092l-3.3242-4.0806c0.6321-0.1087,1.4955-0.4672,1.9637-0.754
	c0.4664-0.2858,0.8317-0.6697,1.0886-1.1505c0.2584-0.4832,0.3931-1.0678,0.3931-1.7605c0-0.7013-0.1306-1.3031-0.3773-1.8006
	c-0.247-0.4982-0.5912-0.9025-1.0256-1.2134c-0.4368-0.3127-0.9374-0.5428-1.5042-0.6873c-0.5653-0.144-1.171-0.2145-1.8121-0.2145
	h-7.5511c-0.0562,0-0.1065,0.0181-0.1447,0.0458c-0.04,0.0291-0.063,0.0661-0.063,0.1087v11.6613
	c0,0.0425,0.0231,0.0796,0.063,0.1087c0.0382,0.0277,0.0882,0.046,0.1447,0.046h2.8315c0.0961,0,0.2078-0.0571,0.2078-0.1547
	V18.9685z M574.4331,13.4554c0.3555,0,0.7269,0.0088,1.1076,0.0258c0.3807,0.0172,0.7614,0.0401,1.139,0.0717
	c0.3776,0.0345,0.7393,0.0744,1.0822,0.1203c0.3431,0.0458,0.6577,0.1002,0.9377,0.1602c0.0314,0.0086,0.0723,0.0029,0.1196-0.0141
	c0.0503-0.0172,0.0847-0.0458,0.1068-0.0889l0.4155-2.3358c0.0283-0.0543,0.0283-0.0999,0.0062-0.143
	c-0.022-0.0431-0.0627-0.0687-0.1196-0.0801c-0.3555-0.0543-0.7362-0.103-1.1389-0.1431c-0.4028-0.04-0.8148-0.0717-1.2365-0.0944
	c-0.4217-0.0256-0.8368-0.0429-1.2488-0.0544c-0.4093-0.0115-0.7996-0.017-1.1707-0.017c-1.0477-0.0029-1.9789,0.0515-2.794,0.1686
	c-0.8117,0.1145-1.5131,0.3092-2.1047,0.5812c-0.5916,0.2749-1.0759,0.6468-1.4566,1.1162
	c-0.381,0.4694-0.6642,1.0591-0.8464,1.7662c-0.1826,0.7069-0.2739,1.5513-0.2739,2.533c0,0.9907,0.0882,1.8435,0.2642,2.565
	c0.1764,0.7212,0.45,1.325,0.8182,1.8089c0.3679,0.4866,0.8399,0.8759,1.4156,1.162c0.5791,0.2891,1.265,0.4952,2.0609,0.6184
	c0.7993,0.1259,1.715,0.186,2.7468,0.1831c0.3714,0,0.7772-0.0057,1.2144-0.0198c0.4376-0.0117,0.884-0.029,1.3401-0.0546
	c0.4565-0.0228,0.8968-0.0517,1.3247-0.0858c0.4247-0.0344,0.812-0.0716,1.161-0.1144c0.0596-0.0174,0.1071-0.0458,0.1478-0.0889
	c0.0379-0.0399,0.06-0.0914,0.06-0.1517v-6.0797c0-0.0427-0.0221-0.0801-0.06-0.1087c-0.0406-0.0288-0.0882-0.0458-0.1478-0.0458
	h-2.8505c-0.0565,0-0.1068,0.017-0.1447,0.0458c-0.041,0.0286-0.0599,0.066-0.063,0.1087v4.0017
	c-0.1195,0.0085-0.2673,0.0171-0.4403,0.0259c-0.1698,0.0084-0.3524,0.0141-0.5412,0.0196
	c-0.1888,0.009-0.3714,0.0145-0.5413,0.0174c-0.1729,0.0028-0.3207,0.0057-0.4402,0.0057
	c-0.6198,0.0028-1.1456-0.0171-1.5734-0.0629c-0.4279-0.043-0.7769-0.1345-1.0477-0.272c-0.2704-0.1402-0.4782-0.3464-0.626-0.6211
	c-0.1447-0.2777-0.2457-0.6441-0.2987-1.1048c-0.0568-0.4581-0.082-1.0304-0.0789-1.7172
	c-0.0031-0.6355,0.0221-1.1681,0.0724-1.5973c0.0533-0.4293,0.1544-0.7759,0.299-1.0363c0.1478-0.2632,0.3618-0.4637,0.6384-0.601
	c0.28-0.1373,0.6453-0.2318,1.0983-0.2834C573.2156,13.4928,573.7723,13.4613,574.4331,13.4554z"/>
<g>
	<defs>
		<path id="SVGID_1_" d="M553.0565,11.1542h9.3044c0.7332,0,1.3329,0.5996,1.3329,1.3329v9.3047c0,0.733-0.5998,1.333-1.3329,1.333
			h-9.3044c-0.7333,0-1.3331-0.6-1.3331-1.333v-9.3047C551.7233,11.7539,552.3231,11.1542,553.0565,11.1542"/>
	</defs>
	<clipPath id="SVGID_2_">
		<use xlink:href="#SVGID_1_"  overflow="visible"/>
	</clipPath>
	
		<linearGradient id="SVGID_3_" gradientUnits="userSpaceOnUse" x1="27.7656" y1="431.977" x2="28.0903" y2="431.977" gradientTransform="matrix(0 43.0702 -37.6208 0 16809.0293 -1187.3448)">
		<stop  offset="0" style="stop-color:#2F2C7D"/>
		<stop  offset="1" style="stop-color:#1B9BD7"/>
	</linearGradient>
	<rect x="551.7233" y="11.1542" clip-path="url(#SVGID_2_)" fill="url(#SVGID_3_)" width="11.9705" height="11.9706"/>
</g>
<rect x="553.5577" y="19.6946" fill-rule="evenodd" clip-rule="evenodd" fill="#FFFFFF" width="8.302" height="0.7152"/>
<path fill-rule="evenodd" clip-rule="evenodd" fill="#FFFFFF" d="M557.7087,14.3556c0.3303,0,0.5981,0.268,0.5981,0.5984
	c0,0.3304-0.2678,0.5983-0.5981,0.5983c-0.3305,0-0.5984-0.2679-0.5984-0.5983C557.1104,14.6237,557.3782,14.3556,557.7087,14.3556"
	/>
<polygon fill-rule="evenodd" clip-rule="evenodd" fill="#FFFFFF" points="557.5886,13.7891 557.217,13.7274 557.217,13.934 
	557.217,14.0912 557.5886,14.0296 557.5269,14.6046 557.8907,14.6046 557.8288,14.0296 558.2006,14.0912 558.2006,13.934 
	558.2006,13.7274 557.8288,13.7891 557.8907,13.4022 557.5269,13.4022 "/>
<path fill-rule="evenodd" clip-rule="evenodd" fill="#FFFFFF" d="M553.5529,20.4098l-0.4444-3.0035
	c-0.0858-0.5809-0.1657-1.9837,1.3472-2.3231l1.5829-0.3552l0.8659,3.6475l-0.6818,0.1929l-0.6882-2.995l-0.8863,0.2072
	c-0.3955,0.0923-0.9841,0.4427-0.8275,1.5078l0.3693,2.5146L553.5529,20.4098z"/>
<path fill-rule="evenodd" clip-rule="evenodd" fill="#FFFFFF" d="M561.8645,20.4098l0.4444-3.0035
	c0.0858-0.5809,0.1657-1.9837-1.347-2.3231l-1.5832-0.3552l-0.8104,3.6475l0.682,0.1929l0.6325-2.995l0.8861,0.2072
	c0.3955,0.0923,0.9843,0.4427,0.8279,1.5078l-0.3697,2.5146L561.8645,20.4098z"/>
<rect x="553.5577" y="18.3756" fill-rule="evenodd" clip-rule="evenodd" fill="#FFFFFF" width="8.302" height="0.7152"/>
<polygon fill-rule="evenodd" clip-rule="evenodd" fill="#FFFFFF" points="557.4009,18.6521 556.8271,15.8725 557.7087,15.6631 
	558.59,15.8725 558.0166,18.6521 557.7087,18.4533 "/>
<path fill="#E10717" d="M45.2095,11.4227h1.3044L51.49,23.1245h-1.6207l-1.1902-2.8761h-5.85l-1.2065,2.8761h-1.5701
	L45.2095,11.4227z M45.8372,13.2081H45.803l-2.4294,5.7506h4.7772L45.8372,13.2081z"/>
<path fill="#E10717" d="M53.0422,11.4227h1.3891v10.412h5.3544v1.2897h-6.7435V11.4227z"/>
<path fill="#E10717" d="M61.3069,11.4227h1.3891v10.412h5.3544v1.2897h-6.7435V11.4227z"/>
<path fill="#FFFFFF" d="M69.57,11.4227h1.3891v11.7017H69.57V11.4227z"/>
<path fill="#FFFFFF" d="M73.8679,11.4227h1.7527l6.7761,9.7191h0.0326v-9.7191h1.3891v11.7017h-1.7527l-6.7761-9.7191H75.257v9.7191
	h-1.3891V11.4227z"/>
<path fill="#E10717" d="M92.1631,23.4212c-0.8919,0-1.7103-0.1533-2.4538-0.4614s-1.3891-0.7353-1.9337-1.2815
	c-0.5462-0.5462-0.9701-1.1951-1.2734-1.95c-0.3033-0.7549-0.4549-1.5734-0.4549-2.4538c0-0.8821,0.1516-1.7006,0.4549-2.4555
	c0.3033-0.7549,0.7272-1.4038,1.2734-1.95c0.5446-0.5462,1.1902-0.9717,1.9337-1.2815c0.7435-0.3082,1.562-0.4614,2.4538-0.4614
	c0.8935,0,1.7103,0.1533,2.4538,0.4614c0.7451,0.3098,1.3891,0.7353,1.9337,1.2815c0.5462,0.5462,0.9701,1.1951,1.2734,1.95
	c0.3033,0.7549,0.4549,1.5734,0.4549,2.4555c0,0.8804-0.1516,1.6989-0.4549,2.4538c-0.3033,0.7549-0.7272,1.4038-1.2734,1.95
	c-0.5446,0.5462-1.1886,0.9734-1.9337,1.2815C93.8735,23.2679,93.0566,23.4212,92.1631,23.4212z M92.1631,22.1331
	c0.6832,0,1.3092-0.1272,1.8766-0.3799c0.5674-0.2544,1.0549-0.6016,1.4625-1.0419c0.4076-0.4402,0.7239-0.9554,0.9505-1.5457
	c0.225-0.5886,0.3375-1.2196,0.3375-1.8913c0-0.6734-0.1125-1.3044-0.3375-1.8929c-0.2266-0.5902-0.5429-1.1054-0.9505-1.5457
	c-0.4076-0.4402-0.8951-0.7875-1.4625-1.0419c-0.5674-0.2527-1.1935-0.3799-1.8766-0.3799s-1.3076,0.1272-1.875,0.3799
	c-0.569,0.2543-1.0565,0.6016-1.4641,1.0419c-0.4076,0.4402-0.7239,0.9554-0.9489,1.5457
	c-0.2266,0.5886-0.3391,1.2196-0.3391,1.8929c0,0.6717,0.1125,1.3027,0.3391,1.8913c0.225,0.5902,0.5413,1.1054,0.9489,1.5457
	c0.4076,0.4402,0.8951,0.7875,1.4641,1.0419C90.8555,22.006,91.48,22.1331,92.1631,22.1331z"/>
<path fill="#E10717" d="M100.511,11.4227h1.7527l6.7761,9.7191h0.0326v-9.7191h1.3891v11.7017h-1.7527l-6.7761-9.7191h-0.0326
	v9.7191h-1.3891V11.4227z"/>
<path fill="#E10717" d="M113.3687,11.4227h7.3549v1.2897h-5.9658v3.6685h5.5696v1.2897h-5.5696v4.1642h6.2625v1.2897h-7.6517
	V11.4227z"/>
<path fill="#FFFFFF" d="M123.1693,11.4227h2.0658l3.9669,9.1729h0.0326l3.9995-9.1729h2.0169v11.7017h-1.3875v-9.8169h-0.0342
	l-4.1968,9.8169h-0.8429l-4.1984-9.8169h-0.0326v9.8169h-1.3891V11.4227z"/>
<path fill="#FFFFFF" d="M138.1613,11.4227h7.3549v1.2897h-5.9658v3.6685h5.5696v1.2897h-5.5696v4.1642h6.2626v1.2897h-7.6517
	V11.4227z"/>
<path fill="#FFFFFF" d="M147.7467,11.4227h4.4968c0.3848,0,0.7924,0.044,1.2228,0.1321c0.4288,0.088,0.856,0.2283,1.2799,0.4223
	c0.4239,0.1924,0.8315,0.4435,1.2228,0.7516c0.3913,0.3082,0.737,0.6799,1.0337,1.1152c0.2967,0.4353,0.5348,0.9375,0.7109,1.5049
	c0.1761,0.5674,0.2641,1.2082,0.2641,1.9256c0,0.7158-0.088,1.3565-0.2641,1.9239c-0.1761,0.569-0.4141,1.0696-0.7109,1.5049
	c-0.2968,0.4353-0.6424,0.8071-1.0337,1.1152c-0.3913,0.3082-0.7989,0.5592-1.2228,0.7516
	c-0.4239,0.194-0.8511,0.3342-1.2799,0.4223c-0.4305,0.088-0.8381,0.1321-1.2228,0.1321h-4.4968V11.4227z M149.1358,21.8348h2.6446
	c0.6717,0,1.2946-0.088,1.8669-0.2641c0.5723-0.1761,1.0696-0.4484,1.4886-0.8185c0.4174-0.3685,0.7484-0.8397,0.9913-1.412
	c0.2413-0.5739,0.3636-1.262,0.3636-2.0658c0-0.8054-0.1223-1.4935-0.3636-2.0674c-0.243-0.5723-0.5739-1.0435-0.9913-1.412
	c-0.419-0.3701-0.9163-0.6424-1.4886-0.8185c-0.5723-0.1761-1.1951-0.2641-1.8669-0.2641h-2.6446V21.8348z"/>
<path fill="#FFFFFF" d="M160.2082,11.4227h1.3891v11.7017h-1.3891V11.4227z"/>
<path fill="#FFFFFF" d="M168.3083,11.4227h1.3044l4.9761,11.7017h-1.6207l-1.1902-2.8761h-5.85l-1.2065,2.8761h-1.5701
	L168.3083,11.4227z M168.936,13.2081h-0.0342l-2.4294,5.7506h4.7772L168.936,13.2081z"/>
<linearGradient id="SVGID_4_" gradientUnits="userSpaceOnUse" x1="252.7884" y1="-2.7408" x2="220.0209" y2="37.0648">
	<stop  offset="0" style="stop-color:#009AC1"/>
	<stop  offset="0.392" style="stop-color:#243573"/>
	<stop  offset="1" style="stop-color:#1D1733"/>
</linearGradient>
<path fill="url(#SVGID_4_)" d="M211.1875,35.0919c0-11.6269,0-23.1532,0-34.7326c0.2316-0.0102,0.4373-0.0274,0.643-0.0273
	c16.0427,0.0139,32.0855,0.0291,48.1282,0.0447c0.7942,0.0008,0.7964,0.0033,0.799,0.7806
	c0.0374,11.0542,0.0744,22.1084,0.1107,33.1626c0.0026,0.7714,0,0.7719-0.7773,0.7719
	c-16.0604,0.0001-32.1209,0.0001-48.1813,0.0001C211.6842,35.0919,211.4586,35.0919,211.1875,35.0919z"/>
<path d="M238.5582,28.5059c0.06,0.0172,0.1093,0.0437,0.1587,0.0438c1.9981,0.0037,3.9963,0.0144,5.9943,0.0008
	c0.5887-0.004,0.8352-0.2992,0.8361-0.9202c0.0096-6.631,0.0121-13.262,0.0325-19.893c0.0014-0.4633-0.1335-0.6122-0.6009-0.6069
	c-2.0686,0.0234-4.1379,0.0327-6.2064,0.0055c-0.7076-0.0093-1.1312,0.2696-1.4862,0.8735
	c-3.6721,6.2467-7.3665,12.4803-11.054,18.718c-0.346,0.5853-0.6878,1.1731-1.0723,1.8294c1.8162,0,3.5293-0.011,5.2421,0.0052
	c0.7294,0.0069,1.2075-0.274,1.5686-0.9342c2.0945-3.829,4.222-7.6399,6.3402-11.4559c0.0793-0.1429,0.1786-0.2748,0.2685-0.4118
	c0.1099,0.2069,0.1098,0.3781,0.1099,0.5492c0.0009,1.2908,0.0083,2.5817,0.0008,3.8725c-0.0059,1.0167,0.163,0.9767-0.9715,0.952
	c-0.717-0.0156-1.1983,0.2372-1.5231,0.9007c-0.497,1.0148-1.0594,1.9976-1.5908,2.9956c-0.0707,0.1328-0.1227,0.2756-0.2168,0.4901
	c0.2733,0,0.4646-0.0003,0.6559,0c0.9725,0.0017,1.9457,0.0238,2.9174-0.0032c0.4741-0.0132,0.619,0.1693,0.6042,0.6207
	C238.5398,26.911,238.5582,27.6857,238.5582,28.5059z"/>
<path d="M249.2247,15.7545c0.0809,0.1325,0.1141,0.1615,0.1143,0.1907c0.0089,1.6086,0.0238,3.2174,0.0037,4.8257
	c-0.0015,0.1216-0.2448,0.3279-0.3921,0.3439c-0.49,0.0534-0.99,0.0109-1.4814,0.0565c-0.4618,0.0429-0.7314,0.307-0.7273,0.8081
	c0.0082,1.0079,0.0225,2.0163-0.0036,3.0235c-0.0114,0.4413,0.1791,0.547,0.5685,0.531c0.4766-0.0195,0.9549,0.005,1.432-0.006
	c0.332-0.0076,0.4781,0.1157,0.4694,0.4663c-0.0171,0.6891,0.02,1.38-0.008,2.0684c-0.0166,0.4087,0.1382,0.5064,0.5226,0.5029
	c1.8389-0.0168,3.678-0.0032,5.5169-0.0091c0.7234-0.0023,0.9506-0.2324,0.9546-0.953c0.0077-1.3969,0.0037-2.7939,0.0094-4.1908
	c0.0212-5.1985,0.044-10.397,0.0676-15.5955c0.0016-0.3618,0.0515-0.7034-0.5126-0.6974c-2.1924,0.0235-4.3852,0.0141-6.5779,0.0169
	c-0.4827,0.0006-0.8419,0.1988-1.0856,0.6282c-0.3752,0.661-0.7841,1.3032-1.148,1.9701c-0.1208,0.2214-0.2065,0.4943-0.2074,0.744
	c-0.0106,3.0414-0.0029,6.0828,0.0031,9.1242c0.0002,0.1196,0.0317,0.2392,0.0674,0.4908
	C247.6513,18.5825,248.4211,17.1988,249.2247,15.7545z"/>
<path d="M215.9054,28.5533c2.4181,0,4.7149,0.0083,7.0115-0.006c0.5553-0.0035,0.9226-0.3139,1.2106-0.8038
	c3.8848-6.6101,7.7847-13.2112,11.6799-19.8151c0.1309-0.222,0.2516-0.4499,0.4345-0.7783c-0.2948,0-0.4812-0.0001-0.6677,0
	c-2.0151,0.0018-4.0305,0.0275-6.045-0.007c-0.7459-0.0128-1.1987,0.2578-1.5759,0.9035
	c-3.4037,5.8266-6.8344,11.6375-10.2566,17.4534C217.1166,26.4858,216.539,27.4731,215.9054,28.5533z"/>
<g>
	<radialGradient id="SVGID_5_" cx="246.3928" cy="6.5011" r="32.0927" gradientUnits="userSpaceOnUse">
		<stop  offset="0.3889" style="stop-color:#FFFFFF"/>
		<stop  offset="0.6706" style="stop-color:#CBE8F1"/>
	</radialGradient>
	<path fill="url(#SVGID_5_)" d="M244.9788,7.1303c-2.0686,0.0234-4.1379,0.0327-6.2064,0.0055
		c-0.7076-0.0093-1.1312,0.2696-1.4861,0.8736c-3.6722,6.2467-7.3666,12.4803-11.0541,18.7179
		c-0.346,0.5853-0.6877,1.1731-1.0723,1.8295c1.8162,0,3.5293-0.0111,5.2421,0.0052c0.7294,0.0069,1.2075-0.274,1.5687-0.9342
		c2.0945-3.829,4.2219-7.64,6.3402-11.4559c0.0793-0.1429,0.1785-0.2748,0.2685-0.4118c0.1098,0.2069,0.1097,0.3781,0.11,0.5492
		c0.0009,1.2909,0.0083,2.5818,0.0007,3.8725c-0.0058,1.0168,0.163,0.9767-0.9715,0.9521
		c-0.7171-0.0157-1.1983,0.2372-1.5231,0.9006c-0.497,1.0149-1.0594,1.9976-1.5909,2.9956
		c-0.0707,0.1329-0.1226,0.2756-0.2168,0.4901c0.2733,0,0.4647-0.0002,0.6559,0.0001c0.9726,0.0017,1.9456,0.0237,2.9174-0.0033
		c0.4742-0.0131,0.619,0.1694,0.6042,0.6208c-0.0255,0.7732-0.007,1.5479-0.007,2.3681c0.06,0.0172,0.1093,0.0437,0.1587,0.0437
		c1.9981,0.0038,3.9963,0.0145,5.9943,0.0008c0.5887-0.004,0.8352-0.2993,0.836-0.9202c0.0096-6.631,0.0121-13.2621,0.0325-19.893
		C245.5811,7.2739,245.4462,7.125,244.9788,7.1303z"/>
	<radialGradient id="SVGID_6_" cx="246.3928" cy="6.5011" r="32.0927" gradientUnits="userSpaceOnUse">
		<stop  offset="0.3889" style="stop-color:#FFFFFF"/>
		<stop  offset="0.6706" style="stop-color:#CBE8F1"/>
	</radialGradient>
	<path fill="url(#SVGID_6_)" d="M255.7586,7.1198c-2.1924,0.0235-4.3853,0.0142-6.5779,0.0169
		c-0.4826,0.0006-0.8418,0.1988-1.0855,0.6281c-0.3752,0.661-0.7841,1.3032-1.148,1.9702c-0.1208,0.2214-0.2065,0.4942-0.2074,0.744
		c-0.0106,3.0414-0.0029,6.0828,0.0032,9.1242c0.0002,0.1196,0.0317,0.2393,0.0674,0.4909c0.841-1.5116,1.6108-2.8953,2.4144-4.3396
		c0.0809,0.1325,0.1141,0.1615,0.1142,0.1908c0.0089,1.6086,0.0238,3.2174,0.0038,4.8257
		c-0.0015,0.1216-0.2449,0.3279-0.3921,0.3439c-0.4901,0.0534-0.99,0.0109-1.4815,0.0566c-0.4618,0.0429-0.7314,0.307-0.7273,0.8081
		c0.0082,1.0079,0.0225,2.0164-0.0036,3.0236c-0.0114,0.4413,0.179,0.5469,0.5684,0.531c0.4767-0.0196,0.9549,0.005,1.432-0.0059
		c0.3321-0.0076,0.4781,0.1157,0.4695,0.4662c-0.0171,0.6892,0.02,1.38-0.008,2.0684c-0.0166,0.4087,0.1382,0.5064,0.5226,0.5029
		c1.8388-0.0168,3.678-0.0032,5.5169-0.0092c0.7234-0.0023,0.9507-0.2323,0.9546-0.953c0.0077-1.3969,0.0037-2.7939,0.0093-4.1908
		c0.0213-5.1986,0.0441-10.3971,0.0677-15.5955C256.2728,7.4555,256.3226,7.1138,255.7586,7.1198z"/>
	<radialGradient id="SVGID_7_" cx="246.4102" cy="6.5011" r="32.1023" gradientUnits="userSpaceOnUse">
		<stop  offset="0.3889" style="stop-color:#FFFFFF"/>
		<stop  offset="0.6706" style="stop-color:#CBE8F1"/>
	</radialGradient>
	<path fill="url(#SVGID_7_)" d="M236.2419,7.1501c-0.2948,0-0.4813-0.0002-0.6677,0c-2.0151,0.0017-4.0306,0.0275-6.0451-0.007
		c-0.7459-0.0127-1.1987,0.2578-1.5759,0.9036c-3.4037,5.8266-6.8343,11.6375-10.2565,17.4533
		c-0.5801,0.9858-1.1577,1.9731-1.7914,3.0533c2.4182,0,4.7148,0.0083,7.0115-0.006c0.5553-0.0035,0.9226-0.3139,1.2105-0.8038
		c3.8847-6.61,7.7848-13.2112,11.6799-19.8151C235.9383,7.7064,236.059,7.4784,236.2419,7.1501z"/>
</g>
<g>
	<path fill="#FFFFFF" d="M261.6844,33.6544c0-0.781,0.6359-1.4169,1.4201-1.4169c0.7842,0,1.4193,0.6359,1.4193,1.4169
		c0,0.7826-0.635,1.4234-1.4193,1.4234c-0.194,0-0.3799-0.0375-0.5536-0.1125C262.0399,34.7468,261.6844,34.2446,261.6844,33.6544z
		 M263.1046,34.8544c0.6563,0,1.1714-0.5527,1.1714-1.2c0-0.6489-0.5152-1.1935-1.1714-1.1935
		c-0.6563,0-1.1723,0.5446-1.1723,1.1935c0,0.3261,0.128,0.6261,0.3383,0.8446C262.485,34.7142,262.7744,34.8544,263.1046,34.8544z
		 M262.5592,34.4338v-1.6141h0.5372c0.2968,0,0.5527,0.1158,0.5527,0.4255c0,0.2152-0.1899,0.3587-0.4044,0.3913
		c0.1361,0.0293,0.2022,0.0995,0.2519,0.212l0.2641,0.5853h-0.2601l-0.2234-0.5038c-0.066-0.1614-0.1321-0.2103-0.3302-0.2103
		h-0.1443v0.7141H262.5592z M262.8029,33.5223h0.1818c0.1981,0,0.4084-0.0538,0.4084-0.269c0-0.2022-0.2022-0.2348-0.4125-0.2348
		h-0.1777V33.5223z"/>
</g>
<g>
	<path fill="#FFFFFF" d="M265.0799,12.2254V8.2145h0.6554v4.0109H265.0799z"/>
	<path fill="#FFFFFF" d="M266.628,12.2254V9.9102c0-0.2332-0.0065-0.4565-0.0302-0.6913h0.5649l0.0179,0.5169
		c0.2103-0.3848,0.5356-0.5772,0.9742-0.5772c0.7459,0,1.0101,0.4696,1.0101,1.1674v1.8995h-0.6074v-1.7739
		c0-0.4207-0.084-0.8234-0.5951-0.8234c-0.5593,0-0.7337,0.4875-0.7337,0.962v1.6353H266.628z"/>
	<path fill="#FFFFFF" d="M269.8636,11.6841c0.2584,0.1272,0.4924,0.181,0.7753,0.181c0.3188,0,0.5715-0.1207,0.5715-0.4516
		c0-0.6799-1.3467-0.4745-1.3467-1.4185c0-0.6375,0.5649-0.8364,1.094-0.8364c0.2707,0,0.5046,0.0359,0.7394,0.1272l-0.0359,0.4386
		c-0.2226-0.0897-0.4451-0.1386-0.6734-0.1386c-0.265,0-0.5413,0.0668-0.5413,0.3783c0,0.5772,1.359,0.3913,1.359,1.4136
		c0,0.6554-0.5951,0.9147-1.1487,0.9147c-0.2943,0-0.5348-0.031-0.8299-0.1272L269.8636,11.6841z"/>
	<path fill="#FFFFFF" d="M272.4845,13.5249v-3.3555c0-0.3554-0.0122-0.6554-0.0302-0.9506h0.5715l0.0236,0.5169
		c0.1622-0.3603,0.565-0.5772,0.9563-0.5772c0.9131,0,1.2326,0.7516,1.2326,1.5522c0,0.7924-0.3375,1.5815-1.2448,1.5815
		c-0.3848,0-0.7573-0.1924-0.9081-0.5544v1.787H272.4845z M273.8313,11.8292c0.6074,0,0.7582-0.6196,0.7582-1.1185
		s-0.1329-1.0891-0.7525-1.0891c-0.5772,0-0.7696,0.6082-0.7696,1.0891c0,0.2397,0.0424,0.5169,0.1622,0.7386
		C273.3503,11.6662,273.5427,11.8292,273.8313,11.8292z"/>
	<path fill="#FFFFFF" d="M275.8873,8.5993V8.0173h0.6017v0.5821H275.8873z M275.8873,12.2254V9.2189h0.6017v3.0065H275.8873z"/>
	<path fill="#FFFFFF" d="M277.3156,12.2254V9.9102c0-0.2332-0.0049-0.4565-0.0294-0.6913h0.5658l0.0179,0.5772
		c0.1255-0.3179,0.4255-0.6375,0.8168-0.6375c0.0913,0,0.1631,0,0.2527,0.0245l-0.0294,0.5707
		c-0.0783-0.0293-0.1565-0.0359-0.2478-0.0359c-0.5951,0-0.7451,0.613-0.7451,1.0761v1.4315H277.3156z"/>
	<path fill="#FFFFFF" d="M279.4351,8.5993V8.0173h0.6017v0.5821H279.4351z M279.4351,12.2254V9.2189h0.6017v3.0065H279.4351z"/>
	<path fill="#FFFFFF" d="M280.8634,12.2254V9.9102c0-0.2332-0.0049-0.4565-0.0294-0.6913h0.5658l0.0179,0.5169
		c0.2103-0.3848,0.5348-0.5772,0.9734-0.5772c0.7451,0,1.0109,0.4696,1.0109,1.1674v1.8995h-0.6082v-1.7739
		c0-0.4207-0.0832-0.8234-0.5951-0.8234c-0.5592,0-0.7337,0.4875-0.7337,0.962v1.6353H280.8634z"/>
	<path fill="#FFFFFF" d="M284.3265,12.9168c0.2657,0.1386,0.5837,0.2168,0.8967,0.2168c0.6978,0,0.9799-0.4337,0.9799-1.0761
		v-0.3554c-0.1924,0.331-0.5479,0.5234-0.9326,0.5234c-0.8837,0-1.2196-0.7696-1.2196-1.5147c0-0.8005,0.3424-1.5522,1.2326-1.5522
		c0.4141,0,0.7516,0.1745,0.944,0.5592V9.2189h0.5772v2.8386c0,0.9799-0.4875,1.5326-1.4919,1.5326
		c-0.3424,0-0.6848-0.0603-1.0223-0.163L284.3265,12.9168z M285.4515,11.7624c0.5772,0,0.7696-0.5886,0.7696-1.0467
		c0-0.481-0.181-1.094-0.763-1.094c-0.6261,0-0.7582,0.5902-0.7582,1.094c0,0.2348,0.0359,0.494,0.15,0.7044
		C284.964,11.6189,285.145,11.7624,285.4515,11.7624z"/>
	<path fill="#FFFFFF" d="M289.3939,12.2254V8.2145h2.3022v0.4875h-1.6581v1.2326h1.5799v0.481h-1.5799v1.3223h1.7185v0.4875
		H289.3939z"/>
	<path fill="#FFFFFF" d="M292.0956,12.2254l1.0272-1.575l-0.9261-1.4315h0.6799l0.6489,1.1185l0.631-1.1185h0.644l-0.9147,1.4315
		l1.0109,1.575h-0.6848l-0.7158-1.2506l-0.7516,1.2506H292.0956z"/>
	<path fill="#FFFFFF" d="M297.5184,12.1782c-0.2413,0.0897-0.4745,0.1141-0.7581,0.1141c-1.0337,0-1.5685-0.662-1.5685-1.5815
		c0-0.9326,0.6375-1.5522,1.5815-1.5522c0.2641,0,0.4924,0.013,0.7516,0.1027l-0.0375,0.481
		c-0.1859-0.0897-0.3962-0.1321-0.631-0.1321c-0.6554,0-1.0157,0.4745-1.0157,1.1006c0,0.6,0.3424,1.1234,1.0516,1.1234
		c0.2234,0,0.3978-0.0408,0.5951-0.1321L297.5184,12.1782z"/>
	<path fill="#FFFFFF" d="M298.5635,10.8542c0,0.5544,0.3424,1.0158,1.0027,1.0158c0.2707,0,0.5723-0.0587,0.812-0.1859
		l0.0359,0.4451c-0.2821,0.1141-0.6,0.163-0.931,0.163c-1.0157,0-1.5391-0.644-1.5391-1.5815c0-0.8234,0.5103-1.5522,1.3761-1.5522
		c0.944,0,1.2571,0.6685,1.2571,1.5163v0.1793H298.5635z M300,10.4825c0-0.4582-0.1321-0.9082-0.6734-0.9082
		c-0.5103,0-0.7516,0.4745-0.7696,0.9082H300z"/>
	<path fill="#FFFFFF" d="M301.1967,12.2254V7.8901h0.6016v4.3354H301.1967z"/>
	<path fill="#FFFFFF" d="M302.6299,12.2254V7.8901h0.6017v4.3354H302.6299z"/>
	<path fill="#FFFFFF" d="M304.4984,10.8542c0,0.5544,0.3424,1.0158,1.0027,1.0158c0.2706,0,0.5723-0.0587,0.812-0.1859
		l0.0359,0.4451c-0.282,0.1141-0.6,0.163-0.931,0.163c-1.0158,0-1.5392-0.644-1.5392-1.5815c0-0.8234,0.5103-1.5522,1.3761-1.5522
		c0.944,0,1.2571,0.6685,1.2571,1.5163v0.1793H304.4984z M305.9348,10.4825c0-0.4582-0.1321-0.9082-0.6734-0.9082
		c-0.5103,0-0.7516,0.4745-0.7696,0.9082H305.9348z"/>
	<path fill="#FFFFFF" d="M307.1299,12.2254V9.9102c0-0.2332-0.0049-0.4565-0.0294-0.6913h0.5658l0.0179,0.5169
		c0.2103-0.3848,0.5348-0.5772,0.9734-0.5772c0.7451,0,1.0109,0.4696,1.0109,1.1674v1.8995h-0.6082v-1.7739
		c0-0.4207-0.0832-0.8234-0.5951-0.8234c-0.5592,0-0.7337,0.4875-0.7337,0.962v1.6353H307.1299z"/>
	<path fill="#FFFFFF" d="M312.6457,12.1782c-0.2413,0.0897-0.4745,0.1141-0.7581,0.1141c-1.0337,0-1.5685-0.662-1.5685-1.5815
		c0-0.9326,0.6375-1.5522,1.5815-1.5522c0.2642,0,0.4924,0.013,0.7516,0.1027l-0.0375,0.481
		c-0.1859-0.0897-0.3962-0.1321-0.631-0.1321c-0.6554,0-1.0157,0.4745-1.0157,1.1006c0,0.6,0.3424,1.1234,1.0516,1.1234
		c0.2234,0,0.3978-0.0408,0.5951-0.1321L312.6457,12.1782z"/>
	<path fill="#FFFFFF" d="M313.6908,10.8542c0,0.5544,0.3424,1.0158,1.0027,1.0158c0.2707,0,0.5723-0.0587,0.812-0.1859
		l0.0359,0.4451c-0.2821,0.1141-0.6,0.163-0.931,0.163c-1.0157,0-1.5391-0.644-1.5391-1.5815c0-0.8234,0.5103-1.5522,1.3761-1.5522
		c0.944,0,1.257,0.6685,1.257,1.5163v0.1793H313.6908z M315.1273,10.4825c0-0.4582-0.1321-0.9082-0.6734-0.9082
		c-0.5103,0-0.7516,0.4745-0.7696,0.9082H315.1273z"/>
	<path fill="#FFFFFF" d="M265.0138,16.1124v-0.5821h0.6008v0.5821H265.0138z M265.0138,19.7385V16.732h0.6008v3.0065H265.0138z"/>
	<path fill="#FFFFFF" d="M266.4413,19.7385v-2.3152c0-0.2332-0.0057-0.4565-0.0302-0.6913h0.565l0.0179,0.5169
		c0.2112-0.3848,0.5356-0.5772,0.9742-0.5772c0.7459,0,1.01,0.4696,1.01,1.1674v1.8995h-0.6073v-1.7739
		c0-0.4207-0.084-0.8234-0.5951-0.8234c-0.5592,0-0.7337,0.4875-0.7337,0.962v1.6353H266.4413z"/>
	<path fill="#FFFFFF" d="M274.4663,19.6309c-0.2829,0.1255-0.6677,0.1745-0.9799,0.1745c-1.275,0-2.1229-0.7826-2.1229-2.069
		c0-1.2261,0.8959-2.0674,2.1229-2.0674c0.3065,0,0.6848,0.0473,0.9677,0.15l-0.0359,0.5283
		c-0.247-0.1141-0.5772-0.1679-0.8601-0.1679c-0.9375,0-1.509,0.662-1.509,1.5571c0,0.9261,0.5413,1.5571,1.4968,1.5571
		c0.3065,0,0.6139-0.0473,0.8837-0.1745L274.4663,19.6309z"/>
	<path fill="#FFFFFF" d="M274.9074,18.2239c0-0.9147,0.5837-1.5522,1.4788-1.5522c0.9505,0,1.4788,0.613,1.4788,1.5522
		c0,0.913-0.5283,1.5815-1.4788,1.5815c-0.2413,0-0.4516-0.0375-0.6375-0.1141C275.2009,19.45,274.9074,18.9086,274.9074,18.2239z
		 M276.3862,19.3472c0.6016,0,0.8299-0.5707,0.8299-1.1234c0-0.5348-0.2103-1.1006-0.8299-1.1006
		c-0.6017,0-0.8299,0.5707-0.8299,1.1006c0,0.2707,0.0603,0.5527,0.1859,0.7696C275.8807,19.2038,276.0797,19.3472,276.3862,19.3472
		z"/>
	<path fill="#FFFFFF" d="M278.5204,19.7385v-2.3152c0-0.2332-0.0049-0.4565-0.0294-0.6913h0.5658l0.0179,0.5169
		c0.1973-0.3848,0.5038-0.5772,0.9196-0.5772c0.481,0,0.781,0.2772,0.8772,0.613c0.1451-0.3717,0.5348-0.613,0.9196-0.613
		c0.6505,0,0.9505,0.4402,0.9505,1.0647v2.0022h-0.6065v-1.9304c0-0.3603-0.1141-0.6669-0.5364-0.6669
		c-0.4924,0-0.6668,0.4924-0.6668,0.9554v1.6419h-0.6017v-1.9304c0-0.3603-0.1141-0.6669-0.5348-0.6669
		c-0.4924,0-0.6734,0.4924-0.6734,0.9554v1.6419H278.5204z"/>
	<path fill="#FFFFFF" d="M283.5748,19.7385v-2.3152c0-0.2332-0.0049-0.4565-0.0294-0.6913h0.5658l0.0179,0.5169
		c0.1973-0.3848,0.5038-0.5772,0.9196-0.5772c0.481,0,0.781,0.2772,0.8772,0.613c0.1451-0.3717,0.5348-0.613,0.9196-0.613
		c0.6505,0,0.9505,0.4402,0.9505,1.0647v2.0022h-0.6065v-1.9304c0-0.3603-0.1141-0.6669-0.5364-0.6669
		c-0.4924,0-0.6668,0.4924-0.6668,0.9554v1.6419h-0.6017v-1.9304c0-0.3603-0.1141-0.6669-0.5348-0.6669
		c-0.4924,0-0.6734,0.4924-0.6734,0.9554v1.6419H283.5748z"/>
	<path fill="#FFFFFF" d="M289.2195,18.4994c0,0.4223,0.0831,0.8299,0.5951,0.8299c0.5527,0,0.7272-0.4859,0.7272-0.962V16.732
		h0.6017v2.3152c0,0.2348,0.0065,0.4565,0.0294,0.6913h-0.5641l-0.0179-0.5103c-0.2103,0.3848-0.5299,0.5772-0.9685,0.5772
		c-0.7451,0-1.0044-0.4875-1.0044-1.1788V16.732h0.6017V18.4994z"/>
	<path fill="#FFFFFF" d="M291.9733,19.7385v-2.3152c0-0.2332-0.0049-0.4565-0.0294-0.6913h0.5658l0.0179,0.5169
		c0.2103-0.3848,0.5348-0.5772,0.9734-0.5772c0.7451,0,1.0109,0.4696,1.0109,1.1674v1.8995h-0.6082v-1.7739
		c0-0.4207-0.0832-0.8234-0.5951-0.8234c-0.5592,0-0.7337,0.4875-0.7337,0.962v1.6353H291.9733z"/>
	<path fill="#FFFFFF" d="M295.3401,16.1124v-0.5821h0.6016v0.5821H295.3401z M295.3401,19.7385V16.732h0.6016v3.0065H295.3401z"/>
	<path fill="#FFFFFF" d="M298.9157,19.6913c-0.2413,0.0897-0.4745,0.1141-0.7581,0.1141c-1.0337,0-1.5685-0.662-1.5685-1.5815
		c0-0.9326,0.6375-1.5522,1.5815-1.5522c0.2641,0,0.4924,0.013,0.7516,0.1027l-0.0375,0.481
		c-0.1859-0.0897-0.3962-0.1321-0.631-0.1321c-0.6555,0-1.0158,0.4745-1.0158,1.1006c0,0.6,0.3424,1.1234,1.0516,1.1234
		c0.2234,0,0.3978-0.0408,0.5951-0.1321L298.9157,19.6913z"/>
	<path fill="#FFFFFF" d="M301.2587,19.7385l-0.0179-0.4745c-0.1859,0.3359-0.5103,0.5413-0.944,0.5413
		c-0.5413,0-0.9978-0.2658-0.9978-0.8902c0-0.7826,0.7027-1.0223,1.5881-1.0223c0.0766,0,0.2462,0,0.3358,0.0065v-0.1272
		c0-0.4386-0.2103-0.6799-0.6848-0.6799c-0.3065,0-0.613,0.0734-0.8837,0.2413l-0.0375-0.463
		c0.2837-0.1141,0.6685-0.1989,0.975-0.1989c0.7745,0,1.2196,0.331,1.2196,1.1429v1.2571c0,0.2576,0.0131,0.4565,0.0375,0.6669
		H301.2587z M301.0598,18.2663c-0.5951,0-1.1658,0.0832-1.1658,0.613c0,0.3424,0.2283,0.4859,0.5478,0.4859
		c0.5462,0,0.781-0.4321,0.781-0.9375v-0.1614H301.0598z"/>
	<path fill="#FFFFFF" d="M304.2065,19.7027c-0.1859,0.0652-0.3913,0.1027-0.5772,0.1027c-0.644,0-0.7631-0.4451-0.7631-1.0288
		v-1.6109h-0.5544V16.732h0.5544v-0.6489l0.6065-0.1989v0.8478h0.6734v0.4337h-0.6734v1.6826c0,0.2592,0.0668,0.481,0.3734,0.481
		c0.1141,0,0.2217-0.0228,0.3293-0.0717L304.2065,19.7027z"/>
	<path fill="#FFFFFF" d="M304.7446,16.1124v-0.5821h0.6016v0.5821H304.7446z M304.7446,19.7385V16.732h0.6016v3.0065H304.7446z"/>
	<path fill="#FFFFFF" d="M305.9935,18.2239c0-0.9147,0.5837-1.5522,1.4788-1.5522c0.9506,0,1.4788,0.613,1.4788,1.5522
		c0,0.913-0.5283,1.5815-1.4788,1.5815c-0.2413,0-0.4516-0.0375-0.6375-0.1141C306.287,19.45,305.9935,18.9086,305.9935,18.2239z
		 M307.4723,19.3472c0.6017,0,0.8299-0.5707,0.8299-1.1234c0-0.5348-0.2103-1.1006-0.8299-1.1006
		c-0.6016,0-0.8299,0.5707-0.8299,1.1006c0,0.2707,0.0603,0.5527,0.1859,0.7696C306.9669,19.2038,307.1658,19.3472,307.4723,19.3472
		z"/>
	<path fill="#FFFFFF" d="M309.6065,19.7385v-2.3152c0-0.2332-0.0049-0.4565-0.0293-0.6913h0.5658l0.0179,0.5169
		c0.2103-0.3848,0.5348-0.5772,0.9734-0.5772c0.7451,0,1.0109,0.4696,1.0109,1.1674v1.8995h-0.6082v-1.7739
		c0-0.4207-0.0848-0.8234-0.5951-0.8234c-0.5593,0-0.7337,0.4875-0.7337,0.962v1.6353H309.6065z"/>
	<path fill="#FFFFFF" d="M312.8414,19.1972c0.2592,0.1272,0.494,0.181,0.7761,0.181c0.3179,0,0.5706-0.1207,0.5706-0.4516
		c0-0.6799-1.3467-0.4745-1.3467-1.4185c0-0.6375,0.5658-0.8364,1.094-0.8364c0.2707,0,0.5054,0.0359,0.7402,0.1272l-0.0359,0.4386
		c-0.2234-0.0897-0.4451-0.1386-0.6734-0.1386c-0.2641,0-0.5413,0.0668-0.5413,0.3783c0,0.5772,1.3582,0.3913,1.3582,1.4136
		c0,0.6554-0.5951,0.9147-1.1479,0.9147c-0.2951,0-0.5348-0.031-0.8299-0.1272L312.8414,19.1972z"/>
	<path fill="#FFFFFF" d="M265.7712,27.2516l-1.1185-4.0109h0.6497l0.8837,3.3864l0.944-3.3864h0.7092l0.9318,3.3864l0.8902-3.3864
		h0.6008l-1.112,4.0109h-0.7459l-0.9375-3.3913l-0.944,3.3913H265.7712z"/>
	<path fill="#FFFFFF" d="M270.4905,25.737c0-0.9147,0.5829-1.5522,1.4788-1.5522c0.9497,0,1.4788,0.613,1.4788,1.5522
		c0,0.913-0.5291,1.5815-1.4788,1.5815c-0.2405,0-0.4508-0.0375-0.6375-0.1141C270.7848,26.9631,270.4905,26.4217,270.4905,25.737z
		 M271.9693,26.8603c0.6008,0,0.8299-0.5707,0.8299-1.1234c0-0.5348-0.2103-1.1006-0.8299-1.1006
		c-0.6016,0-0.8299,0.5707-0.8299,1.1006c0,0.2707,0.0603,0.5527,0.1867,0.7696C271.4639,26.7169,271.6628,26.8603,271.9693,26.8603
		z"/>
	<path fill="#FFFFFF" d="M274.1052,27.2516v-2.3152c0-0.2332-0.0065-0.4565-0.0302-0.6913h0.5649l0.0179,0.5772
		c0.1272-0.3179,0.4272-0.6375,0.8185-0.6375c0.0897,0,0.1614,0,0.2527,0.0245l-0.031,0.5707
		c-0.0783-0.0293-0.1565-0.0359-0.2462-0.0359c-0.5951,0-0.7451,0.613-0.7451,1.0761v1.4315H274.1052z"/>
	<path fill="#FFFFFF" d="M276.2248,27.2516v-4.3354h0.6017v4.3354H276.2248z"/>
	<path fill="#FFFFFF" d="M279.6976,27.2516l-0.0359-0.4989c-0.1859,0.3848-0.5283,0.5658-0.944,0.5658
		c-0.9082,0-1.244-0.7891-1.244-1.5815c0-0.8006,0.3359-1.5522,1.244-1.5522c0.3783,0,0.7581,0.1989,0.9081,0.5592v-1.8277h0.6017
		V26.35c0,0.3359,0.0114,0.6196,0.0293,0.9016H279.6976z M278.8808,26.8554c0.5821,0,0.7631-0.6375,0.7631-1.1136
		c0-0.481-0.1924-1.094-0.7696-1.094c-0.6196,0-0.7516,0.5902-0.7516,1.094c0,0.2478,0.0359,0.5234,0.15,0.7402
		C278.3867,26.6989,278.5742,26.8554,278.8808,26.8554z"/>
	<path fill="#FFFFFF" d="M281.6216,27.2516l-0.9131-3.0065h0.631l0.6913,2.4962l0.7027-2.4962h0.7223l0.7027,2.4962l0.6864-2.4962
		h0.5707l-0.8968,3.0065h-0.7451l-0.6978-2.5011l-0.7093,2.5011H281.6216z"/>
	<path fill="#FFFFFF" d="M285.9064,23.6255v-0.5821h0.6016v0.5821H285.9064z M285.9064,27.2516v-3.0065h0.6016v3.0065H285.9064z"/>
	<path fill="#FFFFFF" d="M289.3792,27.2516l-0.0359-0.4989c-0.1859,0.3848-0.5283,0.5658-0.944,0.5658
		c-0.9081,0-1.244-0.7891-1.244-1.5815c0-0.8006,0.3359-1.5522,1.244-1.5522c0.3783,0,0.7581,0.1989,0.9082,0.5592v-1.8277h0.6016
		V26.35c0,0.3359,0.0114,0.6196,0.0294,0.9016H289.3792z M288.5624,26.8554c0.5821,0,0.763-0.6375,0.763-1.1136
		c0-0.481-0.1924-1.094-0.7696-1.094c-0.6196,0-0.7516,0.5902-0.7516,1.094c0,0.2478,0.0359,0.5234,0.15,0.7402
		C288.0683,26.6989,288.2559,26.8554,288.5624,26.8554z"/>
	<path fill="#FFFFFF" d="M291.1776,25.8804c0,0.5544,0.3424,1.0158,1.0027,1.0158c0.2707,0,0.5723-0.0587,0.812-0.1859
		l0.0359,0.4451c-0.2821,0.1141-0.6,0.163-0.931,0.163c-1.0157,0-1.5391-0.644-1.5391-1.5815c0-0.8234,0.5103-1.5522,1.3761-1.5522
		c0.944,0,1.2571,0.6685,1.2571,1.5163v0.1793H291.1776z M292.614,25.5087c0-0.4582-0.1321-0.9082-0.6734-0.9082
		c-0.5103,0-0.7516,0.4745-0.7696,0.9082H292.614z"/>
</g>
<g>
	<path fill="#FFFFFF" d="M293.3755,23.8897c0.088,0.0538,0.1826,0.0717,0.287,0.0717c0.1402,0,0.2527-0.0603,0.2527-0.225
		c0-0.1304-0.0995-0.1908-0.2136-0.2511l-0.1011-0.0538c-0.119-0.0652-0.2136-0.1402-0.2136-0.3049
		c0-0.225,0.1989-0.3212,0.3994-0.3212c0.088,0,0.1631,0.013,0.2397,0.044l-0.0163,0.1321
		c-0.0669-0.0375-0.1451-0.0538-0.2217-0.0538c-0.1305,0-0.2511,0.044-0.2511,0.194c0,0.1011,0.075,0.1598,0.1728,0.212
		l0.1011,0.0538c0.1386,0.0734,0.256,0.15,0.256,0.3408c0,0.2315-0.1908,0.3571-0.4027,0.3571c-0.106,0-0.2103-0.0163-0.3049-0.0587
		L293.3755,23.8897z"/>
	<path fill="#FFFFFF" d="M294.3113,24.0641v-1.2408h0.2266l0.4255,1.0777l0.4223-1.0777h0.2266v1.2408h-0.1418V22.944
		l-0.4402,1.1201h-0.1419l-0.4402-1.1201v1.1201H294.3113z"/>
</g>
<g>
	<path fill="#E85819" d="M371.5573,7.031v5.3961c-1.4545-0.1135-4.1586-0.7767-7.2405-0.453
		c-1.8907,0.1992-3.5988,1.1874-4.1436,3.0281c-0.5642,1.9017-0.6325,3.8347-0.0589,5.7588
		c0.5319,1.7871,1.7443,2.7975,3.5688,3.1503c2.5845,0.4974,5.3855-0.2537,7.8743-0.7144v5.3526
		c-4.6883,2.7153-9.253,3.2182-13.8696,1.8251c-3.7397-1.1284-5.6926-4.064-6.2762-7.7408
		c-0.8864-5.593-0.1447-8.8847,0.0033-9.5858c0.8502-4.035,3.6033-6.875,7.1048-8.1252
		C364.6868,2.7216,371.5573,7.031,371.5573,7.031"/>
	<g>
		<path fill="#E85819" d="M447.8387,28.6475h-19.2561c0-1.7805-0.0901-3.4598,0.0533-5.119
			c0.0446-0.5142,0.6956-0.9994,1.1185-1.4512c2.8176-3.0156,5.6497-6.0169,8.474-9.0249c0.0824-0.0868,0.1403-0.198,0.2727-0.3895
			h-3.4085v2.0276c-2.0366,0.4151-3.9784,0.3194-5.9659,0.039c-0.0367-0.1702-0.0979-0.3239-0.0979-0.4773
			c-0.0067-2.1144,0.0033-4.2315-0.0145-6.3476c-0.0034-0.5385,0.0867-0.868,0.7466-0.8657
			c5.6532,0.0161,11.3062,0.0122,16.9583,0.0022c0.5096-0.001,0.7066,0.1775,0.6977,0.695
			c-0.0212,1.3549,0.0278,2.7119-0.0289,4.0646c-0.0145,0.3416-0.2482,0.7333-0.4941,0.9959
			c-2.9723,3.1893-5.9647,6.3575-8.9504,9.5335c-0.128,0.1358-0.2337,0.2927-0.425,0.5352h4.2887
			c0-0.6287,0.0245-1.244-0.0078-1.8572c-0.0289-0.5253,0.1492-0.8446,0.6989-0.8336c1.7805,0.0378,3.5598,0.0913,5.3404,0.1403
			V28.6475z"/>
		<path fill="#E85819" d="M373.438,23.2325c0.4946-0.0311,0.8807-0.0556,1.3665-0.0846V12.5906
			c-0.4535-0.0389-0.8369-0.0745-1.3643-0.1212V7.0471h1.8234c2.3475,0,4.6961,0.0239,7.0424-0.0162
			c0.6198-0.0099,0.9637,0.197,0.9788,0.7818c0.0328,1.322,0.0305,2.6446,0.0033,3.9655c-0.0217,0.9926-0.8363,0.691-1.4723,0.7933
			v2.0599h5.1039v-2.0287c-0.449-0.0446-0.8936-0.0913-1.4549-0.1469V7.0983h9.662v5.3321
			c-0.4084,0.0534-0.7901,0.1046-1.2414,0.1636v10.5917c0.4045,0.0267,0.7589,0.049,1.2536,0.0824v5.297h-9.6815v-5.3348
			c0.5097-0.049,0.9515-0.0891,1.4611-0.138v-2.7331h-5.1178v2.7976c0.3956,0.0201,0.7807,0.0378,1.3416,0.0668v5.346h-9.7043
			V23.2325z"/>
		<path fill="#E85819" d="M417.8375,28.6197v-5.366c1.6125,0.3349,1.3821-0.7156,1.3788-1.6348
			c-0.0122-2.6763-0.0045-5.3548-0.0045-8.0301V12.594c-0.4774-0.0557-0.8635-0.1002-1.3521-0.1581V7.0494
			c3.2327,0,6.3342-0.0162,9.4344,0.0344c0.2259,0.0034,0.6209,0.4786,0.6342,0.7506c0.0691,1.2853,0.0512,2.5778,0.0245,3.8648
			c-0.0168,0.7634-0.05,0.7634-1.3799,0.8869v10.5952c0.3895,0.0301,0.769,0.0579,1.3031,0.1002
			c0,1.6325,0.0145,3.2638-0.0234,4.8941c-0.0044,0.1513-0.3405,0.4229-0.523,0.4252
			C424.2284,28.6274,421.1271,28.6197,417.8375,28.6197"/>
		<path fill="#E85819" d="M401.7474,28.3358c-3.2572-1.1617-5.2068-3.6066-6.0225-6.9472
			c-0.6533-2.6786-0.6188-5.3515,0.2515-7.9812c1.1139-3.3651,3.3907-5.5657,6.8304-6.3931
			c2.8322-0.6811,5.7088-0.7078,8.4852,0.3171c2.9801,1.0995,4.882,3.2372,5.8144,6.293c0.9727,3.1804,0.8981,6.3352-0.3282,9.381
			c-1.4801,3.6789-4.399,5.692-8.2905,6.0003C405.1381,29.2706,403.2397,28.8677,401.7474,28.3358 M406.4847,12.3358
			c-2.0476,0-3.708,2.5027-3.708,5.5886c0,3.087,1.6604,5.5886,3.708,5.5886c2.0486,0,3.7089-2.5016,3.7089-5.5886
			C410.1936,14.8385,408.5333,12.3358,406.4847,12.3358"/>
	</g>
</g>
</svg>
