<?xml version="1.0" encoding="utf-8"?>
<!-- Generator: Adobe Illustrator 21.1.0, SVG Export Plug-In . SVG Version: 6.00 Build 0)  -->
<svg version="1.1" id="Capa_1" xmlns="http://www.w3.org/2000/svg" xmlns:xlink="http://www.w3.org/1999/xlink" x="0px" y="0px"
	 viewBox="0 0 512 512" style="enable-background:new 0 0 512 512;" xml:space="preserve">
<style type="text/css">
	.st0{fill:#D80027;}
</style>
<path class="st0" d="M491.742,483.258L30.485,22H256c3.313,0,6-2.687,6-6s-2.687-6-6-6H16c-0.274,0-0.542,0.025-0.807,0.06
	c-0.062,0.008-0.122,0.018-0.183,0.028c-0.533,0.089-1.042,0.247-1.518,0.466c-0.047,0.022-0.094,0.045-0.141,0.068
	c-0.232,0.115-0.459,0.239-0.673,0.382c-0.005,0.003-0.01,0.006-0.015,0.009c-0.216,0.145-0.419,0.307-0.614,0.478
	c-0.047,0.041-0.093,0.083-0.138,0.126c-0.187,0.175-0.367,0.357-0.53,0.554c-0.003,0.003-0.006,0.006-0.009,0.01
	c-0.168,0.204-0.318,0.422-0.459,0.647c-0.03,0.048-0.059,0.095-0.088,0.144c-0.137,0.234-0.263,0.475-0.368,0.728
	c0,0.001-0.001,0.002-0.002,0.003c-0.002,0.004-0.002,0.008-0.004,0.012c-0.101,0.244-0.181,0.497-0.249,0.756
	c-0.014,0.053-0.028,0.105-0.041,0.158c-0.06,0.256-0.108,0.516-0.134,0.783c-0.003,0.029-0.002,0.058-0.004,0.087
	C10.012,15.666,10,15.831,10,16v240c0,3.313,2.686,6,6,6s6-2.687,6-6V30.485l461.258,461.257c1.171,1.172,2.707,1.758,4.242,1.758
	s3.071-0.586,4.242-1.758C494.086,489.399,494.086,485.601,491.742,483.258z"/>
</svg>
