<?xml version="1.0" encoding="utf-8"?>
<!-- Generator: Adobe Illustrator 21.1.0, SVG Export Plug-In . SVG Version: 6.00 Build 0)  -->
<svg version="1.1" id="Слой_1" xmlns="http://www.w3.org/2000/svg" xmlns:xlink="http://www.w3.org/1999/xlink" x="0px" y="0px"
	 viewBox="0 0 640 357" enable-background="new 0 0 640 357" xml:space="preserve">
<g>
	<path fill="#FFFFFF" d="M45.7224,34.3234l20.5811-4.2438l42.2806,107.3431l-19.8033,4.0789l-10.5952-28.5347l-44.2806,9.1292
		l-11.0791,33.0008l-20.893,4.3083L45.7224,34.3234z M56.4754,52.5855L56.1635,52.65l-17.047,52.926l33.9883-7.0038L56.4754,52.5855
		z"/>
	<path fill="#FFFFFF" d="M111.0502,20.8571l19.4915-4.0144l-0.172,98.5328l56.1322-11.5702l0.0412,17.5488l-75.6219,15.5846
		L111.0502,20.8571z"/>
	<path fill="#FFFFFF" d="M192.751,4.018L212.2407,0l-0.1703,98.5364l56.1304-11.5702l0.043,17.5488l-75.6219,15.5846L192.751,4.018z
		"/>
	<path fill="#FFFFFF" d="M0.155,179.1655l19.4915-4.018l-0.172,98.5364l56.1322-11.5702l0.0412,17.5488L0.026,295.2472
		L0.155,179.1655z"/>
	<path fill="#FFFFFF" d="M81.39,162.4232l81.0772-16.7101l0.0412,17.5452l-61.9011,12.7566l-0.0717,30.4093l57.3777-11.8246
		l0.0054,16.581l-57.5354,11.8569l0.0125,33.9686l62.3671-12.8533l0.0412,17.5452l-81.545,16.8069L81.39,162.4232z"/>
	<path fill="#FFFFFF" d="M196.6113,138.6735l20.5811-4.2402l42.2806,107.3395l-19.8033,4.0825l-10.5952-28.5347l-44.2806,9.1257
		l-11.0773,33.0008l-20.893,4.3083L196.6113,138.6735z M207.3643,156.9392l-0.3118,0.0645l-17.0488,52.926l33.9901-7.0073
		L207.3643,156.9392z"/>
	<path fill="#FFFFFF" d="M261.7813,125.2395l40.854-8.4196c14.3444-2.9571,26.0024-1.3226,34.9793,4.8998
		c8.9751,6.2224,15.0721,17.1294,18.2854,32.7248c0.6864,3.3262,1.0861,7.1149,1.2061,11.373
		c0.1201,4.2582-0.1165,8.6382-0.7025,13.1473c-0.5896,4.5091-1.5717,8.9393-2.9499,13.287
		c-1.38,4.3442-3.2761,8.2905-5.6919,11.8175c-2.6631,3.9105-5.312,7.355-7.9482,10.3336
		c-2.6363,2.9821-5.7188,5.6525-9.2404,8.0038c-3.527,2.3477-7.683,4.3979-12.4698,6.1435
		c-4.7868,1.7456-10.6633,3.337-17.6259,4.7707l-39.1353,8.0647L261.7813,125.2395z M280.9843,220.7579l24.3232-5.0109
		c5.613-1.1577,10.3246-3.1291,14.1401-5.9249c3.8119-2.7886,6.9195-5.9751,9.3246-9.5594
		c2.4033-3.5807,4.2349-7.4554,5.4894-11.6168c1.2545-4.1578,2.1111-8.1543,2.5681-11.9859
		c0.4534-3.8316,0.5914-7.3801,0.405-10.649c-0.1828-3.2653-0.4713-5.8353-0.8567-7.7099
		c-2.0126-9.7637-5.6991-16.8678-11.0522-21.2908c-5.3568-4.423-11.9322-5.8281-19.7263-4.2223l-24.325,5.0145L280.9843,220.7579z"
		/>
	<path fill="#FFFFFF" d="M363.1314,104.3537l81.0772-16.7137l0.0394,17.5488l-61.9011,12.7566l-0.0717,30.4093l57.3777-11.8282
		l0.0072,16.5846l-57.5354,11.8569l0.0107,33.9686l62.3689-12.8569l0.0412,17.5452l-81.5467,16.8104L363.1314,104.3537z"/>
	<path fill="#FFFFFF" d="M453.5601,85.7117l48.1804-9.9286c2.3871-0.4911,5.6023-0.9355,9.6364-1.337
		c4.0359-0.3979,8.1454-0.0538,12.3247,1.0359s8.0378,3.251,11.5737,6.4697c3.5377,3.2331,6.0002,8.2224,7.3927,14.9789
		c1.8208,8.8353,1.0054,16.1796-2.4445,22.0364c-3.4517,5.8604-8.9787,10.3372-16.5775,13.4161l0.0645,0.3118
		c5.0413,0.8029,8.7242,2.7814,11.0558,5.932c2.328,3.1506,3.975,7.0647,4.9392,11.7386c0.7921,3.8495,1.2724,7.76,1.4427,11.735
		c0.1702,3.9714,0.7007,7.8712,1.5986,11.6956c0.3208,1.5592,0.7725,3.0933,1.3531,4.5987
		c0.5789,1.5018,1.4373,2.9033,2.5699,4.1829l-20.4252,4.208c-0.8208-1.3441-1.4463-2.6775-1.88-3.9965
		c-0.4373-1.319-0.8136-2.7635-1.1362-4.3227c-0.8566-4.1542-1.3853-8.2977-1.5878-12.4304
		c-0.1989-4.1291-0.7205-8.2224-1.5556-12.2799c-0.6631-3.2187-1.776-5.588-3.3334-7.1077
		c-1.5627-1.5269-3.4086-2.466-5.5431-2.8459c-2.138-0.3692-4.4678-0.3764-6.993-0.0143c-2.5269,0.3513-5.0915,0.8029-7.6902,1.3369
		l-23.2299,4.7887l-0.0645,47.8004l-19.7997,4.0789L453.5601,85.7117z M473.3598,134.462l28.5347-5.8819
		c8.4196-1.7348,14.4771-4.7994,18.1797-9.1973c3.6972-4.3872,4.8729-9.864,3.5234-16.409c-0.6201-3.018-1.6775-5.3693-3.165-7.0683
		c-1.4875-1.699-3.2742-2.8746-5.3603-3.5305c-2.0825-0.6488-4.3604-0.914-6.8264-0.7814
		c-2.4678,0.1255-4.9983,0.4588-7.5952,0.9929l-27.2874,5.6238L473.3598,134.462z"/>
	<path fill="#FFFFFF" d="M565.2778,140.3833c1.3621,8.7135,4.7474,14.3552,10.1526,16.9251
		c5.4069,2.57,12.1634,3.018,20.2711,1.3477c2.5968-0.5341,5.3155-1.4194,8.1489-2.656c2.8316-1.233,5.2994-2.7993,7.4016-4.6954
		c2.1022-1.8997,3.7277-4.1255,4.8782-6.6919c1.1523-2.57,1.3835-5.5127,0.6971-8.8425c-0.6416-3.1183-1.9319-5.5593-3.8657-7.3263
		c-1.9373-1.7706-4.2725-3.104-7.002-4.0073c-2.733-0.8961-5.8138-1.5054-9.2386-1.8352c-3.4248-0.3226-6.9464-0.595-10.572-0.8244
		c-2.6237-0.1111-5.7618-0.3548-9.4178-0.742c-3.6559-0.3835-7.3156-1.3119-10.9752-2.7743
		c-3.6614-1.4696-6.9643-3.6847-9.9052-6.6561c-2.9445-2.9678-4.9589-7.1077-6.0521-12.4053
		c-1.0269-4.9894-1.043-9.8103-0.0502-14.4555c0.991-4.6489,2.9373-8.8712,5.8388-12.667c2.9015-3.7922,6.7493-7.079,11.5415-9.8533
		c4.7905-2.7778,10.4626-4.8352,17.0112-6.1865c5.8209-1.2007,11.4053-1.699,16.7567-1.5018
		c5.3478,0.1936,10.1866,1.3119,14.5075,3.3477c4.3209,2.0287,7.9841,5.0969,10.9949,9.1902
		c3.0109,4.0933,5.088,9.4339,6.2296,16.0255l-18.7083,3.8567c-1.5413-6.9392-4.4983-11.5594-8.873-13.857
		c-4.3729-2.294-10.3551-2.6596-17.9395-1.0968c-1.3549,0.2796-3.1936,0.8208-5.518,1.6273
		c-2.328,0.8029-4.5682,2.0251-6.7224,3.6596c-2.1559,1.638-3.8961,3.7026-5.2259,6.1973c-1.328,2.4947-1.6058,5.613-0.8351,9.3551
		c0.5591,2.7026,1.6434,4.8066,3.2545,6.3227c1.6111,1.509,3.6112,2.6667,6.0002,3.4732c2.3853,0.8101,5.0718,1.3405,8.0485,1.5914
		c2.9786,0.2545,6.0988,0.4265,9.3676,0.5054c4.165,0.2258,8.3748,0.5556,12.6347,0.9749c4.2582,0.4265,8.2583,1.4158,11.9896,2.975
		c3.7384,1.5628,6.993,3.9463,9.7708,7.1722c2.7743,3.2187,4.7654,7.7385,5.9643,13.5595
		c0.8997,4.3657,0.9553,8.8533,0.1739,13.4555c-0.7868,4.6059-2.6721,9.0002-5.6543,13.1903
		c-2.9839,4.1901-7.1919,7.9608-12.624,11.3013c-5.4356,3.3406-12.3605,5.8819-20.7783,7.6167
		c-6.5485,1.3477-12.6311,1.8137-18.2424,1.4015c-5.6112-0.4122-10.5898-1.828-14.934-4.2402
		c-4.3442-2.4015-7.9894-5.9105-10.9429-10.4985c-2.9499-4.5951-5.0413-10.3945-6.2672-17.4054L565.2778,140.3833z"/>
</g>
<g>
	<path fill="#FFFFFF" d="M0.9203,329.5508l2.2312-0.4767l10.3067,23.7747l0.0735-0.0143l10.4465-28.1906l2.4158-0.5161
		l-0.1147,27.782l-1.6344,0.3477l0.3136-26.1082l-0.0753,0.0143l-10.5038,28.2766l-1.5986,0.3405L2.3845,330.9523l-0.0753,0.0143
		l0.2061,26.0006l-1.6344,0.3477L0.9203,329.5508z"/>
	<path fill="#FFFFFF" d="M31.3511,341.035c0.0269,0.3584,0.0556,0.7169,0.0932,1.0681c0.0358,0.3548,0.0914,0.7061,0.1631,1.0538
		c0.1864,0.8638,0.5,1.6667,0.9427,2.4051c0.4409,0.7348,0.9785,1.3477,1.6129,1.8352c0.6344,0.4839,1.3656,0.8244,2.1972,1.0072
		c0.8316,0.1864,1.7294,0.1756,2.6954-0.0323c0.8943-0.19,1.7097-0.5233,2.4499-1.0036c0.7384-0.4839,1.3728-1.0395,1.8943-1.6846
		c0.5251-0.6416,0.9319-1.3441,1.2258-2.1076c0.2903-0.7599,0.4427-1.5377,0.4588-2.3155l1.414-0.3011
		c-0.0627,1.0502-0.2652,2.0466-0.6075,2.9893c-0.3459,0.9427-0.8244,1.7921-1.4409,2.5592c-0.6129,0.767-1.362,1.4194-2.2474,1.957
		c-0.8817,0.5377-1.8943,0.9283-3.0323,1.1685c-1.2169,0.2581-2.3262,0.2903-3.3262,0.086c-1-0.2007-1.8782-0.5843-2.6363-1.147
		c-0.7545-0.5663-1.3853-1.276-1.8907-2.1255c-0.5054-0.8531-0.8638-1.7886-1.0825-2.8029c-0.38-1.785-0.4946-3.4875-0.3459-5.0969
		c0.1505-1.6129,0.5394-3.0718,1.1703-4.3693c0.6308-1.3047,1.5108-2.4015,2.6398-3.3011c1.1309-0.9033,2.4768-1.5197,4.0377-1.8531
		c1.1147-0.2366,2.147-0.2653,3.0933-0.0753c0.9463,0.1864,1.7886,0.5484,2.5252,1.0789c0.733,0.5269,1.3531,1.2115,1.8549,2.0538
		c0.5018,0.8387,0.8656,1.7778,1.086,2.8209c0.1075,0.4911,0.181,0.9749,0.2294,1.4481c0.0484,0.4695,0.086,0.9463,0.1111,1.4337
		L31.3511,341.035z M45.0378,336.8413c-0.0215-0.3333-0.0358-0.6273-0.052-0.8853c-0.0161-0.2581-0.0502-0.509-0.1022-0.7527
		c-0.1756-0.8208-0.4588-1.5771-0.8531-2.2725c-0.3943-0.6918-0.8853-1.2689-1.4767-1.7276
		c-0.5896-0.4552-1.2904-0.7706-2.104-0.9499c-0.8172-0.1756-1.7205-0.1577-2.7115,0.0538
		c-1.1165,0.2366-2.0807,0.6631-2.8979,1.2796c-0.8136,0.6129-1.4785,1.3513-1.9965,2.2115
		c-0.5161,0.8638-0.8997,1.8065-1.147,2.8316c-0.2491,1.0215-0.3746,2.0681-0.3835,3.1327L45.0378,336.8413z"/>
	<path fill="#FFFFFF" d="M50.6527,336.9274c0.0269,0.3584,0.0556,0.7169,0.0932,1.0681c0.0358,0.3549,0.0914,0.7061,0.1631,1.0574
		c0.1864,0.8602,0.5,1.6631,0.9427,2.4015c0.4409,0.7348,0.9785,1.3477,1.6129,1.8352c0.6344,0.4839,1.3656,0.8244,2.1972,1.0072
		c0.828,0.1864,1.7294,0.1756,2.6954-0.0287c0.8925-0.19,1.7097-0.5269,2.4499-1.0072c0.7384-0.4803,1.3728-1.0394,1.8943-1.6846
		c0.5251-0.6416,0.9319-1.3441,1.2258-2.1076c0.2885-0.7599,0.4427-1.5341,0.457-2.3155l1.4158-0.3011
		c-0.0627,1.0538-0.2652,2.0467-0.6075,2.9893c-0.3459,0.9427-0.8244,1.7922-1.4409,2.5592
		c-0.6129,0.7671-1.362,1.4194-2.2474,1.957c-0.8817,0.5377-1.8943,0.9283-3.0341,1.1685c-1.2151,0.2617-2.3244,0.2903-3.3245,0.086
		c-1-0.1971-1.8818-0.5842-2.6363-1.147c-0.7545-0.5663-1.3853-1.276-1.8907-2.1255c-0.5054-0.8531-0.8638-1.7885-1.0825-2.8029
		c-0.3799-1.785-0.4946-3.4875-0.3459-5.0969c0.1505-1.6129,0.5394-3.0682,1.1703-4.3693c0.6308-1.3011,1.5108-2.4015,2.6398-3.3011
		c1.1309-0.9032,2.4768-1.5197,4.0377-1.8495c1.1147-0.2401,2.147-0.2688,3.0933-0.0788c0.9463,0.1899,1.7886,0.5484,2.5252,1.0789
		c0.733,0.5269,1.3495,1.2151,1.8549,2.0538c0.5018,0.8387,0.8656,1.7814,1.0861,2.8208c0.1075,0.4947,0.181,0.9749,0.2294,1.4481
		c0.0484,0.4695,0.086,0.9463,0.1111,1.4337L50.6527,336.9274z M64.3394,332.7373c-0.0215-0.3333-0.0358-0.6309-0.052-0.8853
		c-0.0161-0.2617-0.052-0.5125-0.1057-0.7563c-0.172-0.8172-0.4552-1.5771-0.8495-2.2725
		c-0.3943-0.6918-0.8853-1.2688-1.4767-1.7276c-0.5896-0.4552-1.2904-0.7706-2.104-0.9463
		c-0.8172-0.1756-1.7205-0.1613-2.7133,0.0502c-1.1147,0.2366-2.0789,0.6631-2.8961,1.2796
		c-0.8136,0.6129-1.4803,1.3513-1.9965,2.2115c-0.5161,0.8638-0.8997,1.8065-1.147,2.8316
		c-0.2491,1.0215-0.3764,2.0681-0.3835,3.1327L64.3394,332.7373z"/>
	<path fill="#FFFFFF" d="M66.766,323.3141l3.5323-0.7527l0.0269-6.2618l1.4158-0.3011l-0.0287,6.2618l4.0897-0.871l-0.034,1.2939
		l-4.018,0.8531L71.68,337.4686c-0.0143,0.0538-0.0143,0.1649-0.0054,0.3297c0.009,0.1649,0.0161,0.3477,0.0179,0.5448
		c0.0036,0.1935,0.009,0.3763,0.0233,0.5556c0.0107,0.1756,0.0251,0.3047,0.043,0.3799c0.1147,0.5448,0.3674,0.9104,0.7563,1.1004
		c0.3907,0.1935,0.9696,0.2043,1.7384,0.0394c0.6936-0.147,1.3907-0.3369,2.0968-0.5627v1.2832
		c-0.2473,0.0538-0.5771,0.1398-0.9929,0.2688c-0.4122,0.1255-0.8423,0.2366-1.2886,0.3333
		c-1.1165,0.2366-1.9696,0.1577-2.5574-0.233c-0.5914-0.3943-0.9821-1.0466-1.1774-1.9678
		c-0.052-0.2437-0.0771-0.5484-0.0771-0.9104c0.0018-0.3656-0.0036-0.6918-0.0107-0.9749l0.0896-13.8175l-3.6058,0.7706
		L66.766,323.3141z"/>
	<path fill="#FFFFFF" d="M89.5783,310.6866l1.4122-0.3011L90.935,328.748l0.0878,0.0538l10.6633-12.9179l2.1183-0.4516
		l-8.0844,9.6884l9.2888,10.0361l-1.785,0.3799l-8.5038-9.2655l-3.785,4.4948l0.0161,7.3801l-1.414,0.3011L89.5783,310.6866z"/>
	<path fill="#FFFFFF" d="M106.697,325.0023c0.0233,0.3584,0.0556,0.7169,0.0914,1.0681c0.0376,0.3549,0.0932,0.7061,0.1649,1.0538
		c0.1864,0.8638,0.4982,1.6667,0.9427,2.4051c0.4409,0.7348,0.9785,1.3477,1.6129,1.8316c0.6344,0.4875,1.3656,0.828,2.1972,1.0108
		c0.828,0.1864,1.7294,0.1756,2.6936-0.0323c0.8943-0.19,1.7115-0.5233,2.4517-1.0036c0.7384-0.4839,1.3728-1.0394,1.8943-1.6846
		c0.5251-0.6416,0.9319-1.3441,1.2258-2.1076c0.2885-0.7635,0.4409-1.5377,0.457-2.3155l1.4158-0.3011
		c-0.0627,1.0502-0.2652,2.0467-0.6075,2.9893c-0.3459,0.9427-0.8244,1.7922-1.4409,2.5592
		c-0.6129,0.7671-1.362,1.4194-2.2474,1.957c-0.8817,0.5377-1.8943,0.9283-3.0341,1.1685c-1.2169,0.2581-2.3244,0.2903-3.3245,0.086
		c-1-0.1971-1.8818-0.5842-2.6363-1.147c-0.7581-0.5663-1.3853-1.276-1.8907-2.1255c-0.5054-0.8531-0.8638-1.7886-1.0825-2.8029
		c-0.3799-1.785-0.4946-3.4875-0.3459-5.0969c0.1505-1.6129,0.5394-3.0682,1.1703-4.3693c0.6308-1.3011,1.5108-2.4015,2.6398-3.3011
		c1.1309-0.9032,2.4768-1.5197,4.0377-1.8531c1.1147-0.2366,2.147-0.2652,3.0933-0.0753c0.9463,0.1864,1.7886,0.5484,2.5234,1.0753
		c0.7348,0.5305,1.3513,1.2151,1.8549,2.0574c0.5036,0.8387,0.8674,1.7778,1.0878,2.8209c0.1075,0.491,0.181,0.9749,0.2294,1.4481
		c0.0484,0.4695,0.086,0.9463,0.1111,1.4337L106.697,325.0023z M120.3837,320.8087c-0.0215-0.3333-0.0394-0.6272-0.052-0.8817
		c-0.0161-0.2617-0.052-0.5126-0.1057-0.7563c-0.172-0.8208-0.4552-1.5771-0.8495-2.2724
		c-0.3943-0.6918-0.8853-1.2689-1.4767-1.7277c-0.5896-0.4552-1.2904-0.7706-2.104-0.9498
		c-0.8172-0.1721-1.7205-0.1577-2.7133,0.0538c-1.1147,0.2365-2.0789,0.6631-2.8961,1.2796
		c-0.8154,0.6093-1.4803,1.3513-1.9965,2.2115c-0.5161,0.8638-0.8997,1.8065-1.147,2.828
		c-0.2491,1.0251-0.3764,2.0717-0.3835,3.1363L120.3837,320.8087z"/>
	<path fill="#FFFFFF" d="M124.8498,336.6872c0.4875-0.0215,0.9427-0.0825,1.3638-0.1721c0.9158-0.1935,1.5914-0.6093,2.0269-1.2473
		c0.4373-0.638,0.7993-1.362,1.0932-2.1721l1.2258-3.3764l-7.8246-18.3159l1.6362-0.3477l6.8622,16.538l6.079-19.2944l1.6757-0.3549
		l-8.1991,25.2264c-0.2025,0.638-0.4176,1.2115-0.6469,1.7097c-0.2312,0.5018-0.5126,0.9463-0.8441,1.3262
		c-0.3369,0.3835-0.7312,0.7025-1.1972,0.957c-0.466,0.2545-1.043,0.4552-1.7384,0.6058c-0.2975,0.0609-0.5789,0.1075-0.8441,0.1362
		c-0.2652,0.0323-0.5,0.0538-0.7043,0.0717L124.8498,336.6872z"/>
	<path fill="#FFFFFF" d="M153.2698,326.2891c0.3316,1.5592,1.0646,2.6345,2.2008,3.2259c1.1362,0.5843,2.4875,0.7097,4.0467,0.3764
		c1.3405-0.2832,2.4158-0.6954,3.233-1.2473c0.8154-0.5484,1.4499-1.1972,1.9015-1.9427c0.4498-0.742,0.7527-1.5771,0.905-2.5019
		c0.1523-0.9283,0.2366-1.8997,0.2545-2.9141l0.0466-3.975l-0.0717,0.0143c-0.4516,1.4194-1.1667,2.5986-2.147,3.527
		c-0.9821,0.9355-2.2276,1.5627-3.7402,1.8853c-1.1882,0.2545-2.2707,0.2903-3.242,0.1075
		c-0.9713-0.1792-1.8226-0.5591-2.552-1.1291c-0.7312-0.5663-1.337-1.2939-1.8244-2.1757
		c-0.4839-0.8853-0.8531-1.9033-1.1004-3.0718c-0.285-1.3369-0.3584-2.7169-0.2186-4.1327c0.138-1.4122,0.4946-2.7348,1.0645-3.9535
		c0.5663-1.2258,1.3728-2.2868,2.4122-3.1793c1.0395-0.8961,2.3047-1.4983,3.7922-1.8173c0.8423-0.1792,1.6775-0.2222,2.5019-0.1219
		c0.8208,0.0932,1.5753,0.3082,2.2545,0.6416c0.681,0.3405,1.2653,0.7957,1.7527,1.3835c0.4875,0.5807,0.8244,1.2653,1.018,2.0502
		l0.0753-0.0143l0.043-5.1005l1.4122-0.3011l-0.0645,19.0614c0.0072,1.3728-0.104,2.6058-0.3369,3.7062
		c-0.2348,1.1039-0.6416,2.0861-1.2223,2.9427c-0.5807,0.8638-1.3656,1.5878-2.3567,2.1721
		c-0.9875,0.5878-2.2384,1.043-3.751,1.3656c-0.9176,0.1935-1.8065,0.2473-2.6685,0.1577c-0.862-0.086-1.6362-0.3262-2.328-0.7097
		c-0.6918-0.3835-1.276-0.9068-1.7527-1.5699c-0.4767-0.6631-0.7939-1.4803-0.9516-2.4588L153.2698,326.2891z M158.5298,304.604
		c-1.2653,0.2688-2.3388,0.7993-3.2169,1.5986c-0.8799,0.7993-1.5628,1.7312-2.0466,2.8065
		c-0.4839,1.0753-0.7814,2.2366-0.8943,3.4768c-0.1093,1.2402-0.0448,2.4301,0.1989,3.5735
		c0.4444,2.0825,1.2599,3.613,2.4535,4.5879c1.19,0.9749,2.8298,1.2402,4.9123,0.7993c1.2868-0.276,2.3477-0.8423,3.1739-1.7025
		c0.8262-0.8638,1.4642-1.8674,1.9051-3.0108c0.4445-1.147,0.6989-2.3585,0.7617-3.6417c0.0627-1.2796-0.0233-2.4839-0.2617-3.5987
		c-0.2473-1.1649-0.6523-2.0968-1.2133-2.7957c-0.5663-0.6954-1.1792-1.2151-1.8531-1.5628
		c-0.6703-0.3549-1.3585-0.5556-2.0717-0.6129C159.6678,304.4678,159.0495,304.4929,158.5298,304.604z"/>
	<path fill="#FFFFFF" d="M171.6573,293.2202l1.4122-0.3011l0.1093,27.7318l-1.414,0.3011L171.6573,293.2202z"/>
	<path fill="#FFFFFF" d="M184.896,297.7114c2.38-0.5054,4.3746-0.2437,5.9786,0.785c1.6058,1.0323,2.6649,2.7384,3.1703,5.122
		c0.3118,1.4588,0.4068,2.9821,0.2903,4.5628c-0.1183,1.5807-0.4767,3.0574-1.0789,4.4266
		c-0.6022,1.3692-1.4624,2.5699-2.5771,3.6022c-1.1165,1.0251-2.5054,1.7169-4.165,2.0717
		c-1.3154,0.2796-2.4911,0.3262-3.527,0.1469c-1.0359-0.1792-1.9463-0.5556-2.7295-1.1326
		c-0.7796-0.5663-1.4319-1.3119-1.9499-2.2259s-0.905-1.975-1.1649-3.1901c-0.3065-1.4373-0.3764-2.9248-0.2133-4.466
		c0.1667-1.5377,0.5663-2.9642,1.2079-4.2797c0.6398-1.3154,1.5251-2.4624,2.6524-3.4409
		C181.9138,298.715,183.2831,298.0555,184.896,297.7114z M185.4552,298.8727c-1.4696,0.2867-2.7062,0.871-3.7116,1.742
		c-1.0072,0.8746-1.7922,1.9069-2.3549,3.0897c-0.5663,1.1828-0.9158,2.4553-1.0538,3.8173
		c-0.138,1.3656-0.0717,2.6775,0.1971,3.9427c0.2043,0.9678,0.5126,1.8423,0.9265,2.6237c0.414,0.7778,0.9409,1.4337,1.5825,1.957
		c0.6416,0.5197,1.3943,0.8817,2.2492,1.0753c0.8602,0.1899,1.8334,0.172,2.923-0.0609c1.4642-0.3118,2.6721-0.9391,3.6237-1.8746
		c0.9534-0.9463,1.681-2.0359,2.1793-3.2832c0.5-1.2437,0.7939-2.5735,0.8835-3.9786c0.0896-1.4051,0.0018-2.7277-0.2616-3.9678
		c-0.4014-1.8853-1.1918-3.294-2.3782-4.2367C189.0771,298.7795,187.4731,298.4999,185.4552,298.8727z"/>
	<path fill="#FFFFFF" d="M197.9465,287.6251l1.4158-0.3011l-0.0448,11.6741l0.0753-0.0179
		c0.1756-0.6344,0.4498-1.2581,0.8262-1.8639c0.3746-0.6129,0.8387-1.1721,1.3925-1.681c0.552-0.5054,1.1721-0.9498,1.8567-1.3262
		c0.6846-0.3799,1.4212-0.6523,2.2151-0.8208c1.2635-0.2688,2.3872-0.2939,3.3657-0.0753c0.9821,0.2186,1.8352,0.6201,2.5699,1.2007
		c0.7312,0.5842,1.3334,1.3333,1.7975,2.2438c0.4678,0.9104,0.8172,1.9212,1.0556,3.0395c0.3011,1.4122,0.3871,2.8854,0.2617,4.4159
		c-0.129,1.5305-0.4928,2.9607-1.0914,4.294c-0.5968,1.3333-1.4301,2.4947-2.5036,3.4839c-1.0717,0.9964-2.4015,1.6631-3.9875,2
		c-1.6595,0.3513-3.1667,0.1649-4.5144-0.5771c-1.3495-0.7348-2.4087-1.8782-3.1793-3.4266l-0.0717,0.0179l-0.0269,5.1758
		l-1.414,0.3011L197.9465,287.6251z M206.9646,312.6436c1.4122-0.3011,2.5664-0.9104,3.4607-1.8208
		c0.8925-0.9176,1.5807-1.9821,2.0592-3.2008c0.4785-1.2151,0.7545-2.5054,0.8298-3.8711c0.0717-1.3585-0.0143-2.6237-0.2617-3.7922
		c-0.2079-0.9678-0.5197-1.8208-0.9391-2.5771c-0.4194-0.7527-0.9355-1.3764-1.5448-1.871
		c-0.6093-0.4875-1.3154-0.8244-2.1183-1.0036c-0.8029-0.1792-1.7008-0.1649-2.6918,0.0466
		c-1.3889,0.2975-2.5377,0.9247-3.4499,1.8818c-0.9086,0.957-1.6004,2.0681-2.0717,3.3191
		c-0.4713,1.2545-0.7527,2.5556-0.8387,3.9105c-0.0878,1.3549-0.0161,2.5843,0.2222,3.7026
		c0.1577,0.7384,0.4588,1.4767,0.8979,2.2008c0.4373,0.7204,0.9785,1.3477,1.6219,1.871s1.371,0.9033,2.1882,1.147
		C205.1438,312.8264,206.0219,312.8444,206.9646,312.6436z"/>
	<path fill="#FFFFFF" d="M218.1423,296.8511c0.043-2.233,0.6739-3.9642,1.8925-5.1758c1.2151-1.2187,2.9051-2.0574,5.0611-2.5162
		c0.4713-0.1004,1.061-0.1721,1.7653-0.2007c0.7043-0.0358,1.4033,0.0466,2.095,0.2509c0.69,0.2007,1.3154,0.5484,1.8728,1.0395
		c0.5574,0.491,0.9409,1.2187,1.147,2.1864c0.0896,0.4229,0.1452,0.9857,0.1667,1.6918c0.0215,0.7133,0.0269,1.4158,0.0215,2.1183
		c-0.0072,0.7025-0.0197,1.3369-0.0394,1.9104c-0.0215,0.5735-0.0287,0.9391-0.0215,1.0932
		c-0.0197,0.5233-0.0394,1.0968-0.0609,1.7241c-0.0215,0.6272-0.0358,1.2402-0.0358,1.8351
		c-0.0036,0.595,0.0036,1.147,0.0197,1.6488c0.0143,0.4982,0.052,0.8889,0.1093,1.1613c0.0753,0.3477,0.2222,0.6165,0.4462,0.8172
		c0.224,0.2007,0.5108,0.2617,0.8567,0.19c0.1989-0.043,0.4032-0.1111,0.6165-0.2115c0.2133-0.0968,0.414-0.1864,0.6004-0.2796
		l0.0466,1.3083c-0.2581,0.1326-0.5269,0.2402-0.8029,0.3298c-0.2832,0.086-0.5448,0.1505-0.7921,0.2043
		c-0.6452,0.1362-1.1649,0.0143-1.5592-0.3692c-0.3907-0.3799-0.6308-0.785-0.7204-1.2079
		c-0.043-0.2007-0.0591-0.4588-0.0502-0.7814c0.0072-0.3298,0.0108-0.6165,0.0054-0.8782l-0.0735,0.0143
		c-0.2222,0.7742-0.5681,1.4696-1.0323,2.0861c-0.466,0.6201-0.9857,1.1541-1.5628,1.6129
		c-0.5753,0.4624-1.1972,0.8387-1.8567,1.1362c-0.6649,0.2975-1.3047,0.5126-1.9248,0.6452
		c-0.8172,0.1721-1.6058,0.2437-2.3638,0.2079c-0.7599-0.0323-1.4499-0.1971-2.0699-0.4911
		c-0.6201-0.2975-1.1506-0.7312-1.6004-1.3119c-0.4462-0.5771-0.7688-1.3369-0.9695-2.2796
		c-0.2581-1.2151-0.2366-2.2581,0.0717-3.1255c0.3082-0.8674,0.81-1.595,1.4982-2.1864c0.6918-0.5878,1.5233-1.0681,2.4911-1.4445
		c0.9713-0.3728,2-0.6882,3.0861-0.9427c1.3262-0.3369,2.423-0.6703,3.2868-0.9965c0.862-0.3262,1.5359-0.6918,2.0216-1.0896
		c0.4839-0.3979,0.7957-0.8638,0.9319-1.3871c0.1326-0.5197,0.1237-1.1398-0.0287-1.8603
		c-0.2545-1.1864-0.8208-2.0574-1.7008-2.6058c-0.8835-0.552-2.1918-0.6452-3.9266-0.276c-1.7097,0.3656-3.0323,1.043-3.9607,2.0323
		c-0.9319,0.9857-1.4337,2.3441-1.5054,4.0646L218.1423,296.8511z M230.7197,297.1379l-0.0717,0.0143
		c-0.2169,0.3297-0.5556,0.6273-1.0179,0.8925c-0.4624,0.2688-0.9642,0.5197-1.5108,0.7491
		c-0.5466,0.233-1.1076,0.4373-1.6775,0.6129c-0.5717,0.1685-1.0556,0.3154-1.4463,0.4229
		c-0.8871,0.2151-1.7527,0.4624-2.5986,0.7491c-0.8495,0.2796-1.5789,0.6595-2.1918,1.1255
		c-0.6111,0.4659-1.0663,1.0502-1.3567,1.7455c-0.2939,0.6954-0.3298,1.5663-0.1075,2.6094
		c0.1541,0.7205,0.4194,1.2975,0.7957,1.7312c0.3799,0.4409,0.8262,0.7706,1.3369,0.9821c0.5108,0.2151,1.0753,0.3262,1.6864,0.3441
		c0.6093,0.0107,1.2384-0.0538,1.8836-0.1936c1.1398-0.2401,2.0968-0.6487,2.8675-1.2258c0.7706-0.5842,1.3871-1.2724,1.8495-2.0861
		c0.4624-0.8101,0.8029-1.7097,1.0233-2.6882c0.2186-0.9785,0.3566-1.9929,0.4212-3.0467L230.7197,297.1379z"/>
	<path fill="#FFFFFF" d="M237.1087,279.2916l1.4122-0.3011l0.1111,27.7318l-1.4158,0.3011L237.1087,279.2916z"/>
	<path fill="#FFFFFF" d="M269.5002,272.399l-0.0018,27.7569l-1.4122,0.3011l0.0914-4.4911l-0.0878-0.0573
		c-0.4032,1.638-1.1147,3.0144-2.1362,4.1255c-1.0197,1.1111-2.3854,1.8495-4.0951,2.2151
		c-1.1918,0.2509-2.2814,0.2796-3.2707,0.0717c-0.9893-0.2007-1.8603-0.5878-2.6165-1.1506
		c-0.7563-0.5663-1.38-1.2688-1.8674-2.1111c-0.4893-0.8423-0.8423-1.7707-1.061-2.7886c-0.3047-1.4409-0.3979-2.9463-0.2814-4.5234
		c0.1165-1.5843,0.4893-3.0646,1.1129-4.4589c0.6237-1.3871,1.5054-2.595,2.647-3.6345c1.1398-1.0323,2.5789-1.7312,4.3137-2.1004
		c1.6362-0.3477,3.113-0.1971,4.4302,0.4552c1.319,0.6559,2.233,1.7527,2.7456,3.3047l0.0753-0.0179V272.7L269.5002,272.399z
		 M261.8943,300.9552c1.362-0.2903,2.4893-0.9355,3.3764-1.9391c0.8853-1.0108,1.5502-2.1793,1.9929-3.5162
		c0.4391-1.3405,0.6936-2.7384,0.7581-4.2044c0.0627-1.4624-0.0359-2.8029-0.2939-4.0144c-0.147-0.6953-0.4086-1.362-0.7903-1.9965
		c-0.3817-0.6273-0.8513-1.1613-1.4104-1.6022c-0.5591-0.4373-1.2043-0.7491-1.9284-0.9319
		c-0.7276-0.1792-1.4964-0.1864-2.3155-0.0108c-1.5126,0.319-2.7671,0.9499-3.7563,1.8853
		c-0.9947,0.9391-1.7671,2.0251-2.3226,3.2546c-0.5538,1.2366-0.8907,2.5413-1.009,3.932
		c-0.1201,1.3871-0.0556,2.6703,0.1989,3.8603c0.1792,0.8423,0.4409,1.6416,0.7832,2.4015
		c0.3423,0.7563,0.8083,1.3907,1.3961,1.8961c0.5842,0.509,1.3101,0.8674,2.1721,1.0753
		C259.6039,301.2491,260.6523,301.2204,261.8943,300.9552z"/>
	<path fill="#FFFFFF" d="M274.3354,271.3702l1.4122-0.3011l0.0341,3.9965l-1.4122,0.3011L274.3354,271.3702z M274.3551,279.1411
		l1.414-0.3011l0.0878,19.961l-1.414,0.3011L274.3551,279.1411z"/>
	<path fill="#FFFFFF" d="M282.1295,298.8691c0.3315,1.5592,1.0663,2.6345,2.2043,3.2223c1.1327,0.5878,2.4839,0.7133,4.0431,0.3799
		c1.3405-0.2832,2.4194-0.6953,3.2331-1.2473c0.8154-0.5484,1.4498-1.1971,1.9015-1.9427c0.4498-0.742,0.7527-1.5771,0.9051-2.5019
		c0.1523-0.9283,0.2365-1.8997,0.2545-2.914l0.0466-3.975l-0.0717,0.0143c-0.4516,1.4194-1.1667,2.5986-2.147,3.527
		c-0.9821,0.9355-2.2259,1.5628-3.7402,1.8853c-1.1882,0.2545-2.2707,0.2903-3.242,0.1075
		c-0.9713-0.1792-1.8226-0.5592-2.552-1.1291c-0.7312-0.5663-1.3369-1.2939-1.8244-2.1757
		c-0.4839-0.8853-0.8531-1.9033-1.1004-3.0717c-0.2849-1.3369-0.3584-2.7169-0.2186-4.1327
		c0.1398-1.4122,0.4946-2.7348,1.0645-3.9535c0.5663-1.2259,1.3728-2.2868,2.4122-3.1793c1.0395-0.8961,2.3047-1.4983,3.7922-1.8173
		c0.8441-0.1792,1.6775-0.2222,2.5019-0.1219c0.8208,0.0932,1.5753,0.3083,2.2545,0.6416c0.681,0.3405,1.2653,0.7957,1.7527,1.3835
		c0.4875,0.5807,0.828,1.2653,1.0179,2.0502l0.0753-0.0143l0.043-5.1005l1.4122-0.3011l-0.0645,19.0614
		c0.0072,1.3728-0.1039,2.6058-0.3369,3.7062c-0.2348,1.104-0.6416,2.0825-1.2223,2.9427
		c-0.5807,0.8638-1.3656,1.5879-2.3549,2.1721c-0.9893,0.5878-2.2402,1.043-3.7528,1.3621
		c-0.9176,0.1971-1.8065,0.2509-2.6685,0.1613c-0.862-0.086-1.6363-0.3262-2.328-0.7097c-0.69-0.3835-1.276-0.9069-1.7527-1.5699
		s-0.7939-1.4803-0.9516-2.4588L282.1295,298.8691z M287.3895,277.184c-1.2653,0.2688-2.3352,0.7993-3.2169,1.5986
		c-0.8799,0.7993-1.5627,1.7312-2.0466,2.8065c-0.4839,1.0753-0.7814,2.2366-0.8943,3.4768
		c-0.1093,1.2402-0.0448,2.4301,0.1989,3.5735c0.4445,2.0825,1.2599,3.613,2.4535,4.5879c1.1918,0.9749,2.8298,1.2402,4.9123,0.7993
		c1.2885-0.276,2.3477-0.8423,3.1739-1.7025c0.8262-0.8638,1.4642-1.8674,1.9051-3.0108c0.4445-1.147,0.6989-2.3585,0.7635-3.6417
		c0.0627-1.2796-0.0251-2.4839-0.2616-3.5987c-0.2473-1.1649-0.6541-2.0968-1.2151-2.7957
		c-0.5663-0.6954-1.1793-1.2151-1.8531-1.5663c-0.6703-0.3513-1.3585-0.552-2.0717-0.6093
		C288.5275,277.0478,287.9092,277.0729,287.3895,277.184z"/>
	<path fill="#FFFFFF" d="M300.517,265.8002l1.4122-0.3011l0.0341,3.9965l-1.4122,0.3011L300.517,265.8002z M300.5367,273.5674
		l1.414-0.3011l0.0878,19.9646l-1.414,0.3011L300.5367,273.5674z"/>
	<path fill="#FFFFFF" d="M304.0332,272.8255l3.5323-0.7527l0.0269-6.2618l1.4158-0.3011l-0.0287,6.2618l4.0897-0.871l-0.0359,1.2939
		l-4.0162,0.8567l-0.0699,13.9286c-0.0143,0.0537-0.0143,0.1649-0.0054,0.3297c0.009,0.1685,0.0161,0.3513,0.0179,0.5448
		c0.0018,0.1935,0.009,0.3763,0.0233,0.5555c0.0107,0.1792,0.0251,0.3047,0.043,0.3799c0.1147,0.5448,0.3674,0.914,0.7563,1.104
		c0.3907,0.19,0.9696,0.2007,1.7384,0.0359c0.6936-0.147,1.3907-0.3369,2.0968-0.5627v1.2832
		c-0.2473,0.0538-0.5771,0.1434-0.9929,0.2724c-0.4122,0.1255-0.8423,0.233-1.2886,0.3298
		c-1.1165,0.2366-1.9696,0.1577-2.5574-0.233c-0.5914-0.3943-0.9821-1.0466-1.1775-1.9678
		c-0.052-0.2437-0.0771-0.5484-0.0771-0.9104c0.0018-0.3656-0.0036-0.6882-0.0107-0.9714l0.0896-13.8175l-3.6076,0.767
		L304.0332,272.8255z"/>
	<path fill="#FFFFFF" d="M315.9905,276.0334c0.0394-2.2366,0.6703-3.9643,1.8889-5.1794c1.2187-1.2187,2.9051-2.0574,5.061-2.5162
		c0.4713-0.1004,1.061-0.1685,1.7671-0.2007c0.7061-0.0323,1.4015,0.0466,2.0933,0.2509c0.6918,0.2007,1.3154,0.5484,1.8746,1.0395
		c0.5592,0.4911,0.9391,1.2223,1.1452,2.1864c0.0896,0.4265,0.1452,0.9857,0.1667,1.6954c0.0215,0.7097,0.0287,1.4122,0.0215,2.1147
		c-0.0054,0.7025-0.0197,1.3369-0.0394,1.9104c-0.0215,0.5771-0.0287,0.9391-0.0215,1.0932
		c-0.0179,0.5233-0.0394,1.0968-0.0609,1.7241s-0.0341,1.2402-0.0359,1.8352c-0.0036,0.5986,0.0036,1.147,0.0197,1.6488
		c0.0143,0.4982,0.0538,0.8889,0.1129,1.1613c0.0717,0.3477,0.2204,0.6201,0.4445,0.8172c0.224,0.2007,0.509,0.2652,0.8567,0.19
		c0.1971-0.043,0.4032-0.1111,0.6165-0.2115c0.2115-0.0968,0.4122-0.1864,0.5986-0.2796l0.0466,1.3083
		c-0.2581,0.1326-0.5251,0.2402-0.8029,0.3298c-0.2796,0.086-0.5448,0.1541-0.7921,0.2043
		c-0.6452,0.1398-1.1649,0.0179-1.5574-0.3692c-0.3889-0.3799-0.6326-0.7814-0.7222-1.2043
		c-0.0412-0.2007-0.0591-0.4588-0.0502-0.785c0.0072-0.3262,0.0107-0.6165,0.0072-0.8781l-0.0735,0.0143
		c-0.224,0.7742-0.5699,1.4696-1.0341,2.0861c-0.4642,0.6201-0.9857,1.1541-1.5627,1.6129
		c-0.5753,0.4624-1.1936,0.8423-1.8567,1.1398c-0.6631,0.2939-1.3047,0.509-1.923,0.6416c-0.819,0.172-1.6058,0.2437-2.3639,0.2115
		c-0.7599-0.0358-1.4481-0.2007-2.0717-0.4946c-0.6183-0.2975-1.1505-0.7312-1.5986-1.3119
		c-0.448-0.5771-0.7706-1.3369-0.9713-2.2796c-0.2581-1.2151-0.233-2.2581,0.0753-3.1255c0.3047-0.8674,0.8065-1.595,1.4982-2.1864
		c0.69-0.5878,1.5197-1.0681,2.4911-1.4445c0.9714-0.3728,1.9965-0.6882,3.0825-0.9427c1.3262-0.3369,2.423-0.6703,3.2868-0.9964
		c0.8638-0.3262,1.5377-0.6882,2.0251-1.0896c0.4803-0.3979,0.7921-0.8603,0.9283-1.3835c0.1362-0.5197,0.1255-1.1398-0.0287-1.8603
		c-0.2509-1.1864-0.8172-2.061-1.6989-2.6094c-0.8835-0.552-2.1936-0.6452-3.9266-0.276c-1.7115,0.3656-3.0323,1.043-3.9625,2.0323
		c-0.9283,0.9893-1.4301,2.3477-1.5054,4.0682L315.9905,276.0334z M328.5643,276.3166l-0.0717,0.0143
		c-0.2151,0.3298-0.5555,0.6273-1.0143,0.8961c-0.4624,0.2652-0.966,0.5161-1.5126,0.7491
		c-0.5484,0.2294-1.1076,0.4373-1.6793,0.6093c-0.5699,0.172-1.052,0.3154-1.4445,0.4229c-0.8871,0.2151-1.7545,0.466-2.6004,0.7491
		c-0.8495,0.2832-1.5771,0.6595-2.19,1.1255c-0.6129,0.4695-1.0663,1.0502-1.3585,1.7455
		c-0.2921,0.6954-0.3297,1.5663-0.1075,2.6094c0.1541,0.7205,0.4194,1.2975,0.7975,1.7348c0.3799,0.4373,0.8244,0.767,1.3387,0.9821
		c0.509,0.2115,1.0717,0.3226,1.6828,0.3405c0.6111,0.0107,1.2384-0.0538,1.8835-0.19c1.1416-0.2437,2.0986-0.6523,2.8675-1.2294
		c0.7706-0.5842,1.3871-1.2724,1.8531-2.0861c0.4588-0.8101,0.8011-1.7097,1.0197-2.6882c0.2186-0.9785,0.3584-1.9929,0.4211-3.0431
		L328.5643,276.3166z"/>
	<path fill="#FFFFFF" d="M334.9551,258.4703l1.4122-0.3011l0.1093,27.7318l-1.414,0.3011L334.9551,258.4703z"/>
	<path fill="#FFFFFF" d="M351.5039,254.9505l1.4122-0.3011l0.1093,27.7318l-1.414,0.3011L351.5039,254.9505z"/>
	<path fill="#FFFFFF" d="M358.2066,271.485c0.0251,0.3584,0.0538,0.7133,0.0914,1.0681s0.0914,0.7061,0.1667,1.0538
		c0.1828,0.8638,0.4964,1.6667,0.9391,2.4051c0.4409,0.7312,0.9803,1.3441,1.6129,1.8316c0.6362,0.4875,1.3692,0.8244,2.2008,1.0072
		c0.828,0.19,1.7259,0.1756,2.6918-0.0287c0.8943-0.19,1.7115-0.5233,2.4517-1.0036c0.7366-0.4839,1.371-1.043,1.8961-1.6846
		c0.5233-0.6452,0.9301-1.3477,1.2223-2.1076c0.2903-0.7635,0.4427-1.5377,0.4588-2.3155l1.4158-0.3011
		c-0.0645,1.0502-0.2652,2.0431-0.6093,2.9857c-0.3441,0.9427-0.8244,1.7957-1.4373,2.5628
		c-0.6165,0.7635-1.3656,1.4194-2.2492,1.9535c-0.8817,0.5412-1.8943,0.9283-3.0341,1.1721
		c-1.2169,0.2581-2.3226,0.2867-3.3262,0.086c-1-0.2007-1.8782-0.5878-2.6345-1.147c-0.7563-0.5663-1.3853-1.276-1.8907-2.1291
		c-0.5054-0.8495-0.8656-1.785-1.0807-2.7993c-0.3799-1.785-0.4982-3.4875-0.3477-5.0969c0.1505-1.6129,0.5412-3.0718,1.1721-4.3693
		c0.6273-1.3047,1.509-2.4015,2.6381-3.3011c1.1291-0.9033,2.475-1.5197,4.0377-1.8531c1.1147-0.2366,2.147-0.2652,3.0951-0.0789
		c0.9463,0.19,1.7886,0.552,2.5216,1.0789c0.7348,0.5305,1.3531,1.2151,1.8549,2.0574c0.5054,0.8351,0.8674,1.7778,1.0896,2.8208
		c0.1039,0.4911,0.1792,0.9749,0.2294,1.4445c0.0466,0.4695,0.086,0.9498,0.1093,1.4373L358.2066,271.485z M371.8915,267.2913
		c-0.0179-0.3333-0.0359-0.6308-0.0502-0.8853c-0.0179-0.2581-0.052-0.509-0.1039-0.7527
		c-0.1756-0.8208-0.4588-1.5771-0.8495-2.2725c-0.3961-0.6918-0.8889-1.2688-1.4767-1.7276
		c-0.5914-0.4552-1.2939-0.7706-2.1076-0.9498c-0.8154-0.1756-1.7187-0.1577-2.7115,0.0537
		c-1.1147,0.2366-2.0789,0.6631-2.8961,1.276c-0.8154,0.6129-1.4803,1.3549-1.9947,2.2151
		c-0.5197,0.8603-0.8997,1.8065-1.1506,2.828c-0.2473,1.0215-0.3746,2.0681-0.3799,3.1363L371.8915,267.2913z"/>
	<path fill="#FFFFFF" d="M376.6443,263.1263c0.0394-2.2366,0.6703-3.9642,1.8889-5.1793c1.2187-1.2187,2.9051-2.0574,5.0629-2.5162
		c0.4713-0.1004,1.0591-0.1685,1.7653-0.2007c0.7061-0.0323,1.4015,0.0466,2.0968,0.2509c0.6882,0.2007,1.3119,0.5484,1.871,1.0395
		c0.5592,0.4946,0.9427,1.2222,1.147,2.1864c0.0896,0.4265,0.1434,0.9893,0.1649,1.6954c0.0215,0.7097,0.0287,1.4122,0.0215,2.1147
		c-0.0054,0.7025-0.0179,1.3369-0.0394,1.9104c-0.0215,0.5771-0.0287,0.9391-0.0215,1.0932
		c-0.0179,0.5233-0.0358,1.0968-0.0573,1.724c-0.0251,0.6273-0.0376,1.2402-0.0376,1.8352
		c-0.0054,0.5986,0.0054,1.147,0.0197,1.6488c0.0143,0.5018,0.052,0.8889,0.1111,1.1613c0.0717,0.3477,0.2204,0.6201,0.4445,0.8172
		c0.224,0.2007,0.5107,0.2653,0.8566,0.19c0.1989-0.043,0.4033-0.1111,0.6165-0.2115c0.2151-0.0968,0.4122-0.1864,0.5986-0.2796
		l0.0466,1.3083c-0.2545,0.1326-0.5251,0.2401-0.8029,0.3298c-0.2796,0.086-0.5448,0.1541-0.7921,0.2043
		c-0.6452,0.1398-1.1613,0.0179-1.5574-0.3692c-0.3889-0.3799-0.6326-0.7814-0.7222-1.2043
		c-0.0412-0.2007-0.0591-0.4588-0.0502-0.7849c0.0108-0.3262,0.0108-0.6165,0.0072-0.8782l-0.0735,0.0179
		c-0.224,0.7742-0.5681,1.4696-1.0323,2.0861c-0.466,0.6165-0.9875,1.1506-1.561,1.6129c-0.5771,0.4588-1.1972,0.8387-1.8567,1.1362
		c-0.6667,0.2939-1.3065,0.509-1.9265,0.6416c-0.819,0.1721-1.6058,0.2437-2.3639,0.2115
		c-0.7599-0.0323-1.4481-0.1971-2.0681-0.4946c-0.6219-0.2975-1.1541-0.7312-1.6022-1.3119
		c-0.448-0.5771-0.7706-1.3369-0.9713-2.2796c-0.2581-1.2151-0.233-2.2581,0.0753-3.1255c0.3047-0.8674,0.8065-1.595,1.4983-2.1829
		c0.69-0.5914,1.5197-1.0717,2.4911-1.4481c0.9713-0.3728,1.9965-0.6882,3.0825-0.9427c1.3262-0.3333,2.423-0.6703,3.2868-0.9965
		c0.8638-0.3262,1.5377-0.6882,2.0251-1.0896c0.4839-0.3979,0.7921-0.8602,0.9283-1.3835c0.1362-0.5197,0.1255-1.1398-0.0287-1.8603
		c-0.2509-1.1864-0.8172-2.061-1.6989-2.6094c-0.8835-0.552-2.1918-0.6452-3.9266-0.2724c-1.7097,0.362-3.0323,1.0394-3.9625,2.0287
		c-0.9283,0.9893-1.4301,2.3477-1.5054,4.0682L376.6443,263.1263z M389.2216,263.4095l-0.0753,0.0143
		c-0.2151,0.3297-0.552,0.6273-1.0143,0.8961c-0.4624,0.2653-0.966,0.5161-1.5126,0.7491c-0.5484,0.233-1.1075,0.4373-1.6775,0.6093
		c-0.5717,0.1721-1.0538,0.3154-1.4463,0.4265c-0.8871,0.2151-1.7545,0.4624-2.6004,0.7455
		c-0.8477,0.2831-1.5771,0.6595-2.19,1.1255c-0.6129,0.4695-1.0663,1.0538-1.3567,1.7491
		c-0.2939,0.6954-0.3315,1.5628-0.1093,2.6058c0.1541,0.7205,0.4211,1.2975,0.7975,1.7348
		c0.3799,0.4409,0.8244,0.7671,1.3387,0.9821c0.509,0.2115,1.0717,0.3262,1.6846,0.3405c0.6093,0.0143,1.2384-0.0538,1.8836-0.19
		c1.1398-0.2437,2.0968-0.6523,2.8657-1.2294c0.7742-0.5842,1.3871-1.2724,1.8531-2.0861c0.4588-0.8101,0.8011-1.7061,1.0215-2.6882
		c0.2187-0.9785,0.3566-1.9929,0.4194-3.0431L389.2216,263.4095z"/>
	<path fill="#FFFFFF" d="M411.4516,242.1939l-0.0018,27.7533l-1.414,0.3011l0.0932-4.4875l-0.0896-0.0573
		c-0.4014,1.638-1.1129,3.0144-2.1327,4.1255c-1.0215,1.1111-2.3871,1.8495-4.0987,2.2151c-1.19,0.2509-2.2814,0.2796-3.2707,0.0717
		c-0.9857-0.2007-1.8603-0.5878-2.6147-1.1506c-0.7581-0.5663-1.3782-1.2688-1.8657-2.1147
		c-0.4928-0.8387-0.8459-1.7671-1.0645-2.785c-0.3047-1.4409-0.3979-2.9463-0.2814-4.527c0.1183-1.5807,0.4893-3.061,1.1147-4.4553
		c0.6237-1.3871,1.5054-2.5986,2.647-3.6345c1.138-1.0323,2.5771-1.7312,4.3137-2.1004c1.6345-0.3477,3.113-0.2007,4.4302,0.4552
		c1.3208,0.6524,2.2348,1.7527,2.7456,3.3047l0.0753-0.0179V242.495L411.4516,242.1939z M403.8438,270.7502
		c1.3621-0.2903,2.4893-0.9355,3.3764-1.9391c0.8871-1.0108,1.5538-2.1793,1.9929-3.5162c0.4427-1.3405,0.6935-2.7384,0.7599-4.2044
		c0.0609-1.4624-0.0341-2.8065-0.2921-4.018c-0.1487-0.6954-0.4122-1.3585-0.7939-1.9929
		c-0.3817-0.6273-0.8495-1.1613-1.4104-1.6022c-0.5592-0.4409-1.2007-0.7491-1.9284-0.9319
		c-0.7258-0.1828-1.4965-0.1864-2.3155-0.0108c-1.5126,0.319-2.7653,0.9498-3.7564,1.8854
		c-0.9946,0.9391-1.7671,2.0216-2.3226,3.2546c-0.552,1.233-0.8907,2.5413-1.009,3.932c-0.1201,1.3835-0.0538,2.6703,0.2007,3.8603
		c0.1774,0.8423,0.4391,1.6416,0.7814,2.4015c0.3423,0.7527,0.8083,1.3907,1.3961,1.8961c0.5878,0.509,1.3119,0.8674,2.1721,1.0753
		C401.5553,271.0441,402.6037,271.0154,403.8438,270.7502z"/>
	<path fill="#FFFFFF" d="M416.7814,259.0223c0.0251,0.3549,0.0538,0.7133,0.0932,1.0645c0.0358,0.3549,0.0896,0.7061,0.1649,1.0574
		c0.1828,0.8602,0.4982,1.6631,0.9391,2.4015c0.4409,0.7348,0.9803,1.3477,1.6165,1.8352c0.6326,0.4875,1.3656,0.8244,2.1972,1.0072
		c0.828,0.1864,1.7277,0.1756,2.6936-0.0287c0.8925-0.19,1.7097-0.5269,2.4499-1.0072c0.7384-0.4803,1.3728-1.0394,1.8961-1.6846
		c0.5233-0.6416,0.9301-1.3441,1.2222-2.1076c0.2903-0.7599,0.4445-1.5341,0.4588-2.3155l1.4158-0.3011
		c-0.0645,1.0538-0.2652,2.0467-0.6093,2.9893c-0.3441,0.9427-0.8244,1.7922-1.4373,2.5628
		c-0.6165,0.7635-1.3656,1.4158-2.2492,1.9534c-0.8817,0.5377-1.8943,0.9283-3.0341,1.1685
		c-1.2151,0.2617-2.3226,0.2903-3.3262,0.086c-1-0.1971-1.8782-0.5842-2.6345-1.147c-0.7563-0.5663-1.3853-1.276-1.8907-2.1255
		c-0.5054-0.8531-0.8656-1.7885-1.0807-2.8029c-0.3799-1.785-0.4982-3.4875-0.3477-5.0969
		c0.1505-1.6129,0.5412-3.0682,1.1721-4.3693c0.6272-1.3011,1.509-2.4015,2.638-3.3012c1.1291-0.9032,2.4768-1.5197,4.0378-1.8495
		c1.1147-0.2401,2.147-0.2688,3.095-0.0789c0.9463,0.19,1.7886,0.5484,2.5234,1.0789c0.733,0.5305,1.3513,1.2151,1.8549,2.0538
		c0.5036,0.8387,0.8656,1.7814,1.0878,2.8209c0.1039,0.4946,0.1792,0.9749,0.2294,1.4481c0.0466,0.4695,0.086,0.9463,0.1093,1.4337
		L416.7814,259.0223z M430.4663,254.8286c-0.0179-0.3333-0.0358-0.6308-0.0502-0.8853c-0.0143-0.2617-0.052-0.5126-0.1039-0.7563
		c-0.1756-0.8172-0.4588-1.5771-0.8495-2.2724c-0.396-0.6882-0.8889-1.2688-1.4767-1.7276
		c-0.5914-0.4552-1.2903-0.7706-2.1076-0.9463c-0.8154-0.1756-1.7187-0.1613-2.7115,0.0502
		c-1.1147,0.2366-2.0789,0.6631-2.8961,1.2796c-0.8136,0.6129-1.4803,1.3513-1.9947,2.2115
		c-0.5197,0.8638-0.8997,1.8065-1.1488,2.8316c-0.2491,1.0215-0.3763,2.0682-0.3817,3.1327L430.4663,254.8286z"/>
	<path fill="#FFFFFF" d="M435.5346,244.8427l1.4122-0.3011l-0.0681,4.7958l0.0753-0.0143c0.3907-1.5879,1.0825-2.9822,2.0825-4.1901
		c1-1.2151,2.3531-2.0001,4.0646-2.3657c0.1989-0.043,0.3979-0.0753,0.5986-0.1111c0.2007-0.0287,0.4032-0.0538,0.6075-0.0717
		l-0.0932,1.5807c-0.3925-0.0215-0.7868,0.0108-1.1828,0.0932c-1.3907,0.2975-2.4839,0.9032-3.285,1.828
		c-0.8029,0.9212-1.4122,1.9785-1.8351,3.1649c-0.4194,1.1972-0.6864,2.4409-0.7993,3.7313
		c-0.1147,1.2975-0.1792,2.4517-0.1971,3.466l-0.0269,8.0862l-1.414,0.3011L435.5346,244.8427z"/>
	<path fill="#FFFFFF" d="M446.2517,255.7426c0.0305,0.147,0.0573,0.2975,0.0753,0.448s0.0466,0.3011,0.0771,0.448
		c0.3799,1.785,1.2223,2.9176,2.5287,3.3943c1.3047,0.4695,2.9606,0.4947,4.9696,0.0645c0.5215-0.1111,1.061-0.3118,1.6183-0.6129
		c0.5591-0.2975,1.0609-0.681,1.509-1.1362c0.4463-0.4588,0.7814-0.9785,1.009-1.5592c0.224-0.5771,0.2688-1.2007,0.1272-1.8746
		c-0.2222-0.9068-0.6523-1.5771-1.3011-1.9965c-0.647-0.4158-1.3979-0.724-2.2563-0.9176
		c-0.8549-0.1971-1.7742-0.3298-2.7474-0.4086c-0.9785-0.0753-1.8925-0.2366-2.7492-0.4803
		c-0.8531-0.2473-1.6093-0.6272-2.2617-1.1362c-0.6523-0.5054-1.0771-1.2832-1.2724-2.3298
		c-0.19-0.8961-0.1577-1.7097,0.0986-2.4517c0.2581-0.742,0.6631-1.3907,1.2187-1.9499c0.5556-0.5591,1.2133-1.0251,1.9767-1.3943
		c0.7653-0.3692,1.5556-0.6416,2.3728-0.8136c0.8925-0.19,1.7599-0.2652,2.5986-0.2222c0.8369,0.043,1.595,0.1936,2.276,0.466
		c0.6774,0.2688,1.2563,0.6739,1.733,1.2043c0.4767,0.5341,0.7975,1.1864,0.9606,1.957c0.0484,0.2186,0.0842,0.4301,0.1147,0.6344
		c0.0305,0.2007,0.0663,0.466,0.1129,0.7921l-1.4158,0.3011c-0.0233-0.2294-0.0484-0.4445-0.0789-0.6452
		c-0.0305-0.2007-0.0645-0.4014-0.1075-0.5986c-0.1326-0.6201-0.3835-1.1362-0.7599-1.5484c-0.3692-0.4122-0.828-0.724-1.362-0.9355
		c-0.5377-0.2079-1.1327-0.3298-1.7886-0.3584c-0.6523-0.0287-1.3262,0.0287-2.0215,0.1792
		c-0.5699,0.1219-1.1506,0.3083-1.7438,0.5663c-0.595,0.2581-1.1255,0.5914-1.5968,1c-0.4695,0.4086-0.8262,0.8925-1.0681,1.4516
		c-0.2473,0.5556-0.2921,1.1972-0.1398,1.914c0.1326,0.6201,0.3979,1.1111,0.8011,1.4803c0.4032,0.3728,0.8871,0.6631,1.4516,0.8782
		c0.5627,0.2186,1.1864,0.3728,1.8692,0.4767s1.3692,0.1936,2.061,0.2832c0.7169,0.0753,1.423,0.19,2.1112,0.3262
		c0.6918,0.1398,1.3262,0.3441,1.9033,0.6273c0.5771,0.276,1.0717,0.6523,1.4839,1.1183c0.4086,0.4731,0.6935,1.0825,0.8513,1.8244
		c0.2007,0.9427,0.1721,1.8137-0.0842,2.6201c-0.2545,0.8065-0.6667,1.5233-1.233,2.1506
		c-0.5663,0.6237-1.2455,1.1434-2.0377,1.5627c-0.7939,0.4122-1.6362,0.7133-2.5287,0.9033
		c-1.0162,0.2186-1.9929,0.319-2.9284,0.3083c-0.9337-0.0036-1.776-0.1613-2.5287-0.4695c-0.7545-0.3083-1.3997-0.785-1.9391-1.4337
		c-0.5394-0.6487-0.923-1.5054-1.1488-2.5735l-0.1254-0.595c-0.0215-0.0968-0.043-0.2007-0.0645-0.2975
		c-0.0215-0.0968-0.0323-0.2151-0.0323-0.3405L446.2517,255.7426z"/>
	<path fill="#FFFFFF" d="M473.4853,228.9929l1.4122-0.3011l0.034,4.0001l-1.4122,0.3011L473.4853,228.9929z M473.505,236.7637
		l1.414-0.3011l0.0896,19.961l-1.4158,0.3011L473.505,236.7637z"/>
	<path fill="#FFFFFF" d="M479.7883,235.4267l1.4122-0.3011l-0.0412,4.3657l0.0735-0.0143c0.5412-1.595,1.3692-2.9427,2.4821-4.0467
		c1.1111-1.1076,2.5359-1.8423,4.2707-2.2151c0.7187-0.1505,1.4355-0.1792,2.1416-0.086c0.7043,0.0968,1.3549,0.3226,1.9499,0.6738
		c0.595,0.3549,1.1076,0.8244,1.5449,1.4194c0.4373,0.595,0.7455,1.3011,0.9212,2.1219c0.0466,0.2186,0.0878,0.509,0.1237,0.8638
		c0.0376,0.3584,0.0627,0.7276,0.0806,1.1075c0.0179,0.3871,0.0305,0.7563,0.0394,1.1004c0.0072,0.3513,0.0143,0.6416,0.0108,0.8746
		l-0.1183,10.9465l-1.414,0.3011l0.1273-10.9106c-0.0125-0.1792-0.0215-0.4337-0.0251-0.7706
		c-0.009-0.3333-0.0215-0.6918-0.0341-1.0645c-0.0161-0.3692-0.0376-0.7491-0.0663-1.1291s-0.0735-0.7097-0.1326-0.9857
		c-0.2581-1.2115-0.8566-2.1147-1.7993-2.7026c-0.9409-0.5914-2.1327-0.7348-3.5718-0.4301
		c-1.2133,0.2581-2.2384,0.7778-3.0699,1.5484c-0.8351,0.7742-1.509,1.6846-2.0216,2.742
		c-0.5143,1.0574-0.8907,2.1864-1.1255,3.3908c-0.2366,1.2007-0.3531,2.3621-0.3477,3.4768l0.0179,9.3981l-1.414,0.3011
		L479.7883,235.4267z"/>
	<path fill="#FFFFFF" d="M509.7066,221.2866l2.233-0.4767l10.3067,23.7748l0.0735-0.0143l10.4447-28.1906l2.4176-0.5161
		l-0.1147,27.782l-1.6345,0.3477l0.3119-26.1117l-0.0753,0.0179l-10.502,28.2767l-1.5986,0.3405l-10.3981-23.8321l-0.0753,0.0179
		l0.2079,25.997l-1.6345,0.3513L509.7066,221.2866z"/>
	<path fill="#FFFFFF" d="M546.6716,220.7275c2.3799-0.5054,4.3746-0.2437,5.9804,0.785c1.604,1.0359,2.6631,2.7384,3.1685,5.122
		c0.3119,1.4588,0.4086,2.9821,0.2903,4.5628c-0.1183,1.5843-0.4767,3.0574-1.0789,4.4302c-0.6022,1.3692-1.4624,2.57-2.5771,3.6022
		c-1.1165,1.0251-2.5054,1.7169-4.165,2.0681c-1.3137,0.2796-2.4893,0.3298-3.5269,0.147
		c-1.0359-0.1792-1.9445-0.5556-2.7295-1.1291c-0.7796-0.5699-1.4319-1.3154-1.9499-2.2259
		c-0.5179-0.9176-0.905-1.9785-1.1649-3.1936c-0.3065-1.4373-0.3763-2.9248-0.2133-4.466c0.1666-1.5377,0.5699-2.9642,1.2097-4.2761
		c0.6398-1.3154,1.5234-2.466,2.6506-3.4409C543.6895,221.7311,545.0587,221.0716,546.6716,220.7275z M547.2308,221.8924
		c-1.4678,0.2867-2.7062,0.8674-3.7115,1.742c-1.0054,0.871-1.7886,1.9033-2.3549,3.0897
		c-0.5663,1.1792-0.9158,2.4552-1.0538,3.8173c-0.1362,1.362-0.0717,2.6739,0.1971,3.9392
		c0.2043,0.9678,0.5143,1.8423,0.9283,2.6237c0.4122,0.7778,0.9391,1.4337,1.5807,1.957c0.6451,0.5233,1.3943,0.8853,2.2509,1.0753
		c0.8585,0.1935,1.8316,0.172,2.923-0.0609c1.4624-0.3082,2.6703-0.9391,3.6255-1.8746c0.9499-0.9427,1.6775-2.0359,2.1757-3.2796
		c0.5-1.2473,0.7939-2.5771,0.8853-3.9822c0.0878-1.405,0-2.7277-0.2617-3.9678c-0.4014-1.8853-1.1936-3.294-2.38-4.2367
		C550.8527,221.7956,549.2487,221.5196,547.2308,221.8924z"/>
	<path fill="#FFFFFF" d="M559.939,231.5521c0.0305,0.147,0.0538,0.2939,0.0735,0.448c0.0197,0.1505,0.0484,0.3011,0.0789,0.448
		c0.3799,1.785,1.2205,2.9176,2.5287,3.3908c1.3047,0.4731,2.9607,0.4946,4.9697,0.0681c0.5197-0.1111,1.0592-0.3118,1.6183-0.6129
		c0.5574-0.3011,1.061-0.681,1.509-1.1398c0.4445-0.4588,0.7814-0.9749,1.009-1.5556c0.2241-0.5807,0.2689-1.2043,0.1273-1.8746
		c-0.2222-0.9068-0.6559-1.5771-1.3011-1.9965c-0.647-0.4158-1.3979-0.724-2.2563-0.9176
		c-0.8549-0.1971-1.7742-0.3298-2.7474-0.4086c-0.9785-0.0753-1.8925-0.2366-2.7491-0.4839
		c-0.8531-0.2437-1.6094-0.6237-2.2617-1.1326c-0.6523-0.5054-1.0771-1.2832-1.2724-2.3334
		c-0.19-0.8925-0.1577-1.7061,0.0985-2.4481c0.2563-0.742,0.6631-1.3943,1.2187-1.9535c0.5556-0.5556,1.2133-1.0215,1.9767-1.3907
		c0.7635-0.3692,1.5538-0.6416,2.3728-0.8172c0.8925-0.1864,1.7563-0.2652,2.5951-0.2222c0.8405,0.043,1.5986,0.1971,2.2778,0.4695
		c0.6792,0.2652,1.2581,0.6703,1.7348,1.2043c0.4749,0.5341,0.7957,1.1864,0.9588,1.957c0.0466,0.2186,0.0842,0.4301,0.1165,0.6344
		c0.0305,0.2007,0.0663,0.466,0.1111,0.7921l-1.414,0.3011c-0.0233-0.2294-0.0502-0.4445-0.0789-0.6452
		c-0.0305-0.2007-0.0645-0.4014-0.1075-0.5986c-0.1326-0.6201-0.3835-1.1362-0.7599-1.5484
		c-0.371-0.4122-0.8279-0.7276-1.3621-0.9355c-0.5376-0.2115-1.1326-0.3298-1.7886-0.362
		c-0.6523-0.0287-1.3279,0.0323-2.0215,0.1792c-0.5717,0.1219-1.1506,0.3118-1.7455,0.5663
		c-0.5932,0.2581-1.1255,0.595-1.595,1.0036s-0.8262,0.8925-1.0717,1.4481c-0.2437,0.5592-0.2885,1.1972-0.1362,1.914
		c0.1326,0.6201,0.3978,1.1147,0.8011,1.4839s0.8835,0.6595,1.4517,0.8782c0.5627,0.2186,1.1864,0.3728,1.8692,0.4767
		s1.3692,0.1936,2.061,0.2832c0.7169,0.0753,1.423,0.19,2.1111,0.3262c0.6918,0.1362,1.3262,0.3441,1.9015,0.6237
		c0.5771,0.2796,1.0717,0.6523,1.4857,1.1219c0.4086,0.4731,0.6935,1.0789,0.8513,1.8208c0.2007,0.9427,0.1721,1.8173-0.0842,2.6237
		c-0.2545,0.8065-0.6667,1.5233-1.233,2.1506c-0.5663,0.6237-1.2455,1.1434-2.0395,1.5592
		c-0.7921,0.4158-1.6345,0.7169-2.527,0.9068c-1.0179,0.2151-1.9946,0.319-2.9283,0.3082
		c-0.9337-0.0036-1.7778-0.1613-2.5287-0.4695c-0.7545-0.3082-1.3997-0.785-1.9391-1.4337
		c-0.5395-0.6488-0.923-1.5054-1.1506-2.5735l-0.1273-0.595c-0.0215-0.0968-0.043-0.2007-0.0627-0.2975
		c-0.0215-0.0968-0.0305-0.2151-0.0305-0.3405L559.939,231.5521z"/>
	<path fill="#FFFFFF" d="M592.757,224.8387c-0.3226,2.1434-1.0753,3.9858-2.2635,5.5342c-1.1846,1.5484-2.8693,2.5556-5.0521,3.0216
		c-1.3154,0.2796-2.4803,0.3118-3.4965,0.1004c-1.0162-0.2079-1.8997-0.6165-2.6506-1.2258
		c-0.7509-0.6022-1.3674-1.3728-1.8513-2.3083c-0.4857-0.9319-0.8513-1.9929-1.1057-3.1793
		c-0.3154-1.4911-0.3764-2.9929-0.1828-4.5126c0.1971-1.5197,0.6273-2.9284,1.2957-4.2402
		c0.6667-1.3083,1.5681-2.4337,2.7043-3.3728c1.1326-0.9427,2.466-1.5771,4.0055-1.9033c0.991-0.2115,1.9481-0.2545,2.8693-0.1254
		c0.9211,0.129,1.7509,0.405,2.4911,0.8316c0.7366,0.4229,1.3513,0.9928,1.8387,1.7061c0.4874,0.7133,0.7975,1.5628,0.9301,2.5449
		l-1.4122,0.3011c-0.3494-1.638-1.0968-2.8029-2.2438-3.5126c-1.1487-0.6989-2.552-0.8746-4.2115-0.5197
		c-1.3907,0.2975-2.5682,0.8746-3.5359,1.7456c-0.9713,0.8638-1.7312,1.8889-2.2814,3.0682
		c-0.5538,1.1792-0.9014,2.4409-1.0412,3.7779c-0.1452,1.3405-0.0861,2.6201,0.1721,3.8316
		c0.1935,0.9176,0.4928,1.7742,0.8961,2.5699c0.4014,0.7957,0.9104,1.4732,1.5197,2.0287c0.6094,0.5556,1.3226,0.9498,2.1381,1.1792
		c0.8118,0.2294,1.7258,0.233,2.742,0.0179c1.7868-0.3799,3.1847-1.2043,4.199-2.466c1.0126-1.2688,1.6667-2.785,1.9642-4.5592
		L592.757,224.8387z"/>
	<path fill="#FFFFFF" d="M603.1622,208.7093c2.3818-0.5054,4.3764-0.2473,5.9804,0.785c1.604,1.0323,2.6614,2.7384,3.1685,5.122
		c0.3118,1.4588,0.4086,2.9786,0.2886,4.5592c-0.1147,1.5843-0.4731,3.0574-1.0789,4.4302c-0.6022,1.3692-1.4588,2.57-2.5735,3.6022
		c-1.1183,1.0251-2.5054,1.7169-4.1667,2.0717c-1.3137,0.2796-2.4893,0.3262-3.5251,0.147
		c-1.0359-0.1828-1.9463-0.5592-2.7295-1.1326c-0.7795-0.5699-1.4319-1.3154-1.9517-2.2259
		c-0.5197-0.9176-0.9068-1.9785-1.1649-3.1936c-0.3047-1.4373-0.3764-2.9212-0.2115-4.4625
		c0.1649-1.5413,0.5663-2.9678,1.2079-4.2797c0.6398-1.3154,1.5251-2.4624,2.6524-3.4409
		C600.1818,209.7093,601.5511,209.0498,603.1622,208.7093z M603.7231,209.8706c-1.4695,0.2867-2.7079,0.8674-3.7115,1.742
		c-1.0072,0.8746-1.7922,1.9069-2.3549,3.0897c-0.5663,1.1792-0.9158,2.4552-1.0538,3.8173
		c-0.138,1.362-0.0717,2.6739,0.1971,3.9427c0.2043,0.9678,0.5126,1.8423,0.9266,2.6237c0.4104,0.7742,0.9409,1.4337,1.5825,1.9534
		c0.6416,0.5233,1.3943,0.8853,2.2491,1.0789c0.8585,0.19,1.8334,0.1721,2.923-0.0609c1.4642-0.3118,2.6721-0.9391,3.6237-1.8782
		c0.9534-0.9427,1.681-2.0359,2.1793-3.2796c0.4982-1.2473,0.7921-2.5735,0.8835-3.9786c0.0878-1.4051,0.0018-2.7277-0.2617-3.9678
		c-0.4014-1.8854-1.1918-3.294-2.3818-4.2402C607.3415,209.7738,605.7411,209.4978,603.7231,209.8706z"/>
	<path fill="#FFFFFF" d="M613.4116,206.9924l1.4122-0.3011l5.6148,17.0793l0.0753-0.0179l5.1328-19.3625l1.8961-0.405
		l5.4661,17.1079l0.0753-0.0143l5.2815-19.3947L640,201.3363l-6.1202,21.2801l-1.7115,0.3656l-5.3962-16.9646l-0.0753,0.0179
		l-5.2761,19.2334l-1.7474,0.3728L613.4116,206.9924z"/>
</g>
</svg>
