<?xml version="1.0" encoding="utf-8"?>
<!-- Generator: Adobe Illustrator 21.1.0, SVG Export Plug-In . SVG Version: 6.00 Build 0)  -->
<svg version="1.1" id="Слой_1" xmlns="http://www.w3.org/2000/svg" xmlns:xlink="http://www.w3.org/1999/xlink" x="0px" y="0px"
	 viewBox="0 0 639 297" enable-background="new 0 0 639 297" xml:space="preserve">
<g>
	<path fill="#FFFFFF" d="M45.9689,34.7845l20.6933-4.267l42.511,107.9281l-19.9113,4.1012l-10.653-28.6902l-44.5219,9.179
		l-11.1395,33.1806L1.9407,160.548L45.9689,34.7845z M56.7804,53.1461l-0.3135,0.0649L39.327,106.4254l34.1735-7.0419
		L56.7804,53.1461z"/>
	<path fill="#FFFFFF" d="M111.6526,21.2448l19.5977-4.0363l-0.173,99.0698l56.4381-11.6332l0.0414,17.6444l-76.034,15.6695
		L111.6526,21.2448z"/>
	<path fill="#FFFFFF" d="M193.7987,4.314l19.5959-4.0399l-0.1712,99.0734l56.4363-11.6332l0.0432,17.6444l-76.034,15.6695
		L193.7987,4.314z"/>
	<path fill="#FFFFFF" d="M0.1531,180.416l19.5977-4.0399l-0.173,99.0734l56.4381-11.6332l0.0415,17.6444l-76.034,15.6695
		L0.1531,180.416z"/>
	<path fill="#FFFFFF" d="M81.8308,163.5824l81.519-16.8011l0.0414,17.6408l-62.2385,12.8261l-0.0721,30.575l57.6904-11.8891
		l0.0054,16.6714l-57.849,11.9215l0.0126,34.1537l62.707-12.9234l0.0414,17.6408l-81.9893,16.8984L81.8308,163.5824z"/>
	<path fill="#FFFFFF" d="M197.6801,139.7033l20.6933-4.2634l42.511,107.9244l-19.9113,4.1048l-10.653-28.6902l-44.5219,9.1754
		l-11.1377,33.1806l-21.0068,4.3318L197.6801,139.7033z M208.4916,158.0685l-0.3135,0.0649l-17.1417,53.2144l34.1753-7.0455
		L208.4916,158.0685z"/>
	<path fill="#FFFFFF" d="M263.2052,126.1961l41.0767-8.4654c14.4226-2.9732,26.1441-1.3298,35.17,4.9265
		c9.024,6.2563,15.1542,17.2228,18.385,32.9031c0.6902,3.3444,1.092,7.1536,1.2127,11.435s-0.1171,8.6853-0.7064,13.2189
		c-0.5928,4.5336-1.5803,8.988-2.966,13.3595c-1.3875,4.3679-3.2939,8.3357-5.7229,11.8819
		c-2.6777,3.9318-5.3409,7.3951-7.9915,10.3899c-2.6506,2.9984-5.7499,5.6833-9.2907,8.0474
		c-3.5462,2.3605-7.7249,4.4219-12.5378,6.177c-4.813,1.7551-10.7215,3.3552-17.7219,4.7967l-39.3486,8.1087L263.2052,126.1961z
		 M282.5128,222.2351l24.4557-5.0382c5.6436-1.164,10.3809-3.1461,14.2172-5.9572c3.8327-2.8038,6.9572-6.0076,9.3754-9.6115
		c2.4164-3.6003,4.258-7.496,5.5193-11.6801c1.2614-4.1805,2.1227-8.1988,2.5822-12.0513c0.4559-3.8525,0.5946-7.4203,0.4072-10.707
		c-0.1838-3.2831-0.4739-5.8671-0.8613-7.7519c-2.0236-9.8169-5.7301-16.9597-11.1125-21.4069
		c-5.386-4.4472-11.9972-5.8599-19.8338-4.2453l-24.4575,5.0418L282.5128,222.2351z"/>
	<path fill="#FFFFFF" d="M365.1077,105.1965l81.519-16.8047l0.0396,17.6444l-62.2385,12.8261l-0.0721,30.5751l57.6904-11.8927
		l0.0072,16.675l-57.849,11.9215l0.0108,34.1537l62.7087-12.927l0.0414,17.6408l-81.9911,16.9021L365.1077,105.1965z"/>
	<path fill="#FFFFFF" d="M456.0291,86.4529l48.4429-9.9827c2.4001-0.4937,5.6328-0.9406,9.6889-1.3442
		c4.0579-0.4,8.1898-0.0541,12.3918,1.0415c4.2021,1.0956,8.0816,3.2687,11.6368,6.5049c3.5569,3.2507,6.0328,8.2672,7.4329,15.0605
		c1.8307,8.8835,1.0109,16.2678-2.4578,22.1565c-3.4705,5.8923-9.0276,10.3935-16.6678,13.4892l0.0648,0.3135
		c5.0688,0.8073,8.7718,2.7966,11.1161,5.9644c2.3407,3.1678,3.9967,7.1032,4.9661,11.8026
		c0.7964,3.8705,1.2794,7.8023,1.4506,11.799c0.1711,3.9931,0.7045,7.9141,1.6073,11.7594
		c0.3225,1.5677,0.7766,3.1101,1.3604,4.6237c0.582,1.51,1.4451,2.9191,2.584,4.2057l-20.5365,4.2309
		c-0.8253-1.3514-1.4542-2.6921-1.8903-4.0183c-0.4396-1.3262-0.8181-2.7786-1.1424-4.3463
		c-0.8613-4.1768-1.3929-8.3429-1.5965-12.4981c-0.2-4.1516-0.7244-8.2672-1.5641-12.3468
		c-0.6667-3.2363-1.7857-5.6184-3.3516-7.1464c-1.5713-1.5352-3.4273-2.4795-5.5734-2.8615
		c-2.1497-0.3712-4.4922-0.3784-7.0311-0.0144c-2.5407,0.3532-5.1193,0.8073-7.7321,1.3442l-23.3565,4.8147l-0.0648,48.0609
		l-19.9077,4.1012L456.0291,86.4529z M475.9368,135.4688l28.6902-5.9139c8.4654-1.7443,14.5559-4.8256,18.2787-9.2475
		c3.7173-4.4111,4.8994-9.9178,3.5426-16.4984c-0.6235-3.0344-1.6866-5.3986-3.1823-7.1068
		c-1.4955-1.7082-3.2921-2.8903-5.3895-3.5498c-2.0938-0.6523-4.3841-0.919-6.8635-0.7856
		c-2.4813,0.1261-5.0256,0.4613-7.6366,0.9983l-27.4361,5.6544L475.9368,135.4688z"/>
	<path fill="#FFFFFF" d="M568.3557,141.4224c1.3694,8.761,4.7733,14.4334,10.2079,17.0174
		c5.4364,2.584,12.2297,3.0344,20.3815,1.3551c2.611-0.537,5.3445-1.4271,8.1934-2.6705c2.847-1.2397,5.3283-2.8146,7.442-4.721
		c2.1136-1.91,3.748-4.148,4.9048-6.7284c1.1586-2.584,1.3911-5.5427,0.7009-8.8907c-0.6451-3.1353-1.9424-5.5896-3.8867-7.3663
		c-1.9479-1.7803-4.2958-3.1209-7.0402-4.0291c-2.7479-0.901-5.8454-1.5136-9.2889-1.8452
		c-3.4435-0.3243-6.9843-0.5982-10.6296-0.8289c-2.638-0.1117-5.7932-0.3568-9.4691-0.746
		c-3.6759-0.3856-7.3554-1.319-11.035-2.7894c-3.6813-1.4776-7.0023-3.7048-9.9592-6.6923
		c-2.9606-2.984-4.9859-7.1464-6.0851-12.4729c-1.0325-5.0166-1.0487-9.8637-0.0505-14.5343
		c0.9965-4.6742,2.9534-8.9195,5.8707-12.736c2.9173-3.8129,6.7861-7.1176,11.6044-9.907
		c4.8165-2.793,10.5196-4.8616,17.1038-6.2202c5.8527-1.2073,11.4675-1.7082,16.848-1.51c5.3769,0.1946,10.2421,1.319,14.5865,3.366
		c4.3444,2.0398,8.0276,5.1247,11.0548,9.2403s5.1157,9.4853,6.2635,16.1128l-18.8103,3.8777
		c-1.5496-6.9771-4.5228-11.6224-8.9213-13.9325c-4.3967-2.3065-10.4115-2.6741-18.0372-1.1028
		c-1.3622,0.2811-3.2111,0.8253-5.5482,1.6361c-2.3407,0.8073-4.5931,2.0362-6.759,3.6795
		c-2.1677,1.647-3.9174,3.7228-5.2545,6.2311c-1.3352,2.5083-1.6145,5.6436-0.8397,9.406c0.5622,2.7173,1.6523,4.8328,3.2723,6.3572
		c1.6199,1.5172,3.6309,2.6813,6.0328,3.4921c2.3984,0.8145,5.0994,1.3478,8.0925,1.6001c2.9948,0.2559,6.132,0.4289,9.4186,0.5081
		c4.1877,0.227,8.4204,0.5586,12.7036,0.9802c4.2814,0.4289,8.3033,1.4235,12.0549,2.9912
		c3.7589,1.5713,7.0311,3.9678,9.8241,7.2113c2.7894,3.2363,4.7913,7.7807,5.9968,13.6334
		c0.9045,4.3895,0.9604,8.9015,0.1747,13.5289c-0.791,4.631-2.6866,9.0493-5.6851,13.2622
		c-3.0002,4.2129-7.2311,8.0042-12.6927,11.3629c-5.4652,3.3588-12.4279,5.9139-20.8915,7.6582
		c-6.5842,1.3551-12.7,1.8235-18.3418,1.4091c-5.6418-0.4144-10.6476-1.838-15.0154-4.2634
		c-4.3679-2.4146-8.033-5.9427-11.0026-10.5557c-2.9659-4.6201-5.0688-10.4512-6.3013-17.5003L568.3557,141.4224z"/>
</g>
</svg>
