<?xml version="1.0" encoding="utf-8"?>
<!-- Generator: Adobe Illustrator 21.1.0, SVG Export Plug-In . SVG Version: 6.00 Build 0)  -->
<svg version="1.1" id="Слой_1" xmlns="http://www.w3.org/2000/svg" xmlns:xlink="http://www.w3.org/1999/xlink" x="0px" y="0px"
	 viewBox="0 0 100 97.9144" enable-background="new 0 0 100 97.9144" xml:space="preserve">
<path fill="#FFFFFF" d="M32,41v18c0,9.9,8.1,18,18,18s18-8.1,18-18V41c0-9.9-8.1-18-18-18S32,31.1,32,41z M50,27c7.7,0,14,6.3,14,14
	v18c0,7.7-6.3,14-14,14s-14-6.3-14-14V41C36,33.3,42.3,27,50,27z"/>
<path fill="#FFFFFF" d="M50,44c1.1,0,2-0.9,2-2v-6c0-1.1-0.9-2-2-2s-2,0.9-2,2v6C48,43.1,48.9,44,50,44z"/>
<path fill="#FFFFFF" d="M48.6,92.4C49,92.8,49.5,93,50,93s1-0.2,1.4-0.6l5-5c0.8-0.8,0.8-2,0-2.8s-2-0.8-2.8,0L50,88.2l-3.6-3.6
	c-0.8-0.8-2-0.8-2.8,0s-0.8,2,0,2.8L48.6,92.4z"/>
</svg>
