<?xml version="1.0" encoding="utf-8"?>
<!-- Generator: Adobe Illustrator 21.1.0, SVG Export Plug-In . SVG Version: 6.00 Build 0)  -->
<svg version="1.1" id="Слой_1" xmlns="http://www.w3.org/2000/svg" xmlns:xlink="http://www.w3.org/1999/xlink" x="0px" y="0px"
	 viewBox="0 0 480.85 129.09" style="enable-background:new 0 0 480.85 129.09;" xml:space="preserve">
<style type="text/css">
	.st0{fill-rule:evenodd;clip-rule:evenodd;fill:#BD1C1B;}
	.st1{fill-rule:evenodd;clip-rule:evenodd;fill:#FFFFFF;}
</style>
<g>
	<rect class="st0" width="480.85" height="129.09"/>
	<path class="st1" d="M102.43,72.01v3.35c0,3.58-0.65,5.96-1.94,8.39c-1.29,2.44-3.21,4.29-5.74,5.56c-2.53,1.27-5.3,2.16-8.29,2.69
		c-3,0.52-6.56,0.78-10.69,0.78c-5.74,0-12.84-1.18-21.3-2.29V80.09c10.25,1.61,17.41,2.41,21.49,2.41c8.02,0,12.03-1.44,12.03-5.57
		v-3.26c0-1.79-0.52-3.25-1.57-4.4c-1.05-1.14-3.15-1.71-6.3-1.71h-7.04c-13.21,0-19.82-5.24-19.82-15.74v-4.45
		c0-5.19,2.18-9.03,6.53-11.53c4.35-2.5,11.31-3.75,20.88-3.75c4.63,0,10.89,1.25,18.8,2.05v9.9c-9.38-1.11-15.8-1.66-19.26-1.66
		c-4.75,0-8.02,0.4-9.81,1.2c-1.79,0.8-2.68,2.16-2.68,4.08v4.26c0,3.15,2.65,4.73,7.96,4.73h7.22c7.03,0,12.05,1.3,15.05,3.89
		C100.93,63.12,102.43,66.95,102.43,72.01z"/>
	<path class="st1" d="M152.81,63.24v13.24c0,2.9-0.46,5.39-1.39,7.46c-0.93,2.07-2.07,3.67-3.42,4.81
		c-1.36,1.14-3.13,2.02-5.32,2.64c-2.19,0.62-4.2,1-6.02,1.16c-1.82,0.15-4.03,0.23-6.62,0.23c-2.59,0-4.8-0.08-6.62-0.23
		c-1.82-0.15-3.83-0.54-6.02-1.16c-2.19-0.62-3.97-1.49-5.33-2.64c-1.36-1.14-2.5-2.74-3.42-4.81c-0.93-2.07-1.39-4.55-1.39-7.46
		V63.24c0-3.09,0.48-5.72,1.43-7.92c0.96-2.19,2.13-3.87,3.52-5.05c1.39-1.17,3.19-2.08,5.42-2.73c2.22-0.65,4.21-1.05,5.97-1.2
		c1.76-0.15,3.9-0.23,6.43-0.23c2.53,0,4.68,0.08,6.44,0.23c1.76,0.16,3.75,0.56,5.97,1.2c2.22,0.65,4.03,1.56,5.42,2.73
		c1.39,1.17,2.56,2.86,3.52,5.05C152.33,57.52,152.81,60.16,152.81,63.24L152.81,63.24z M139.29,78.05L139.29,78.05V61.11
		c0-2.41-0.62-4.12-1.85-5.14c-1.23-1.02-3.7-1.53-7.41-1.53c-3.7,0-6.17,0.51-7.41,1.53c-1.24,1.02-1.85,2.73-1.85,5.14v16.94
		c0,2.35,0.6,3.98,1.8,4.91c1.21,0.92,3.69,1.39,7.45,1.39c3.77,0,6.25-0.46,7.45-1.39C138.69,82.04,139.29,80.41,139.29,78.05z"/>
	<path class="st1" d="M197.69,74.35V80c0,2.22-0.42,4.13-1.25,5.74c-0.83,1.61-1.88,2.86-3.15,3.75c-1.26,0.89-2.92,1.59-4.95,2.08
		c-2.04,0.5-4,0.82-5.88,0.97c-1.88,0.15-4.09,0.23-6.62,0.23c-4.88,0-10.77-0.46-17.69-1.39v-8.98c8.58,1.3,14.54,1.94,17.87,1.94
		c2.65,0,4.71-0.26,6.16-0.79c1.45-0.52,2.18-1.56,2.18-3.1v-2.78c0-1.42-0.4-2.49-1.2-3.2c-0.8-0.71-2.53-1.07-5.18-1.07h-5.84
		c-4.69,0-8.35-0.94-10.97-2.82c-2.62-1.88-3.93-4.64-3.93-8.28v-5.46c0-4.08,1.95-6.88,5.83-8.43c3.89-1.54,9.38-2.32,16.48-2.32
		c2.96,0,8.27,0.28,15.93,0.83v8.61c-9.63-0.74-15.06-1.11-16.3-1.11c-3.77,0-6.15,0.26-7.13,0.79c-0.99,0.52-1.48,1.52-1.48,3.01
		v2.41c0,0.74,0.38,1.42,1.16,2.04c0.77,0.62,1.96,0.92,3.56,0.92h5.93C192.19,63.61,197.69,67.19,197.69,74.35z"/>
	<path class="st1" d="M234.9,92.32c-2.6,0.31-5.09,0.46-7.5,0.46c-2.1,0-3.94-0.08-5.51-0.23c-1.58-0.15-3.21-0.53-4.91-1.11
		c-1.7-0.59-3.09-1.36-4.17-2.32c-1.08-0.96-1.98-2.32-2.68-4.08c-0.71-1.76-1.07-3.84-1.07-6.25V55.37h-9.07v-8.33h9.07V34.07
		h13.52v12.97h12.32v8.33h-12.32v21.11c0,3.09,0.46,5.17,1.39,6.25c0.92,1.08,2.96,1.62,6.11,1.62c1.05,0,2.66-0.16,4.82-0.46V92.32
		z"/>
	<path class="st1" d="M281.58,91.86h-13.24v-4.08c-0.99,1.79-2.41,3.07-4.26,3.84c-1.85,0.77-5.25,1.15-10.19,1.15
		c-6.05,0-10.06-0.92-12.04-2.78c-1.98-1.85-2.96-5.71-2.96-11.57c0-5.31,1.02-8.99,3.05-11.06c2.04-2.07,5.68-3.1,10.93-3.1h15.19
		V61.2c0-2.71-0.63-4.52-1.9-5.41c-1.26-0.89-3.93-1.34-8.01-1.34c-3.83,0-9.08,0.37-15.74,1.11v-8.52
		c5.12-0.61,10.83-0.92,17.13-0.92c8.27,0,14.01,1,17.23,3.01c3.21,2.01,4.81,5.97,4.81,11.9V91.86L281.58,91.86z M268.06,80.37
		L268.06,80.37v-8.71h-9.26c-2.96,0-4.82,0.34-5.56,1.02c-0.74,0.68-1.11,2.5-1.11,5.47c0,2.9,0.39,4.66,1.15,5.28
		c0.78,0.62,2.73,0.92,5.88,0.92c1.54,0,2.68-0.01,3.42-0.04c0.74-0.03,1.54-0.11,2.41-0.23c0.86-0.12,1.47-0.32,1.8-0.6
		c0.34-0.28,0.63-0.66,0.88-1.16C267.94,81.82,268.06,81.18,268.06,80.37z"/>
	<polygon class="st1" points="330.61,47.04 314.13,91.86 300.42,91.86 283.38,47.04 297.74,47.04 307.55,78.05 317,47.04 	"/>
	<path class="st1" d="M378.98,57.32h-4.63c-3.71,0-6.5,0.57-8.38,1.71c-1.88,1.15-2.83,3.11-2.83,5.88v26.95h-13.52V47.04h12.87
		v7.87c0.06-2.22,1.34-4.24,3.84-6.06c2.5-1.82,5.11-2.73,7.82-2.73h4.81V57.32z"/>
	<path class="st1" d="M427.57,91.86h-13.33v-5.46c-1.05,4.26-5.84,6.39-14.35,6.39c-5.93,0-10-1.06-12.22-3.19
		c-2.23-2.13-3.33-5.35-3.33-9.68V47.04h13.52v31.02c0,2.47,0.42,4.14,1.25,5c0.83,0.86,2.82,1.3,5.97,1.3
		c3.89,0,6.36-0.42,7.41-1.25c1.05-0.83,1.58-2.51,1.58-5.05V47.04h13.52V91.86z"/>
	<path class="st1" d="M341.97,90.32c0,0.82-0.67,1.49-1.49,1.49h-10.23c-0.82,0-1.49-0.67-1.49-1.49v-9c0-0.82,0.67-1.49,1.49-1.49
		h10.23c0.82,0,1.49,0.67,1.49,1.49V90.32z"/>
</g>
</svg>
