<?xml version="1.0" encoding="utf-8"?>
<!-- Generator: Adobe Illustrator 21.1.0, SVG Export Plug-In . SVG Version: 6.00 Build 0)  -->
<svg version="1.1" id="Слой_1" xmlns="http://www.w3.org/2000/svg" xmlns:xlink="http://www.w3.org/1999/xlink" x="0px" y="0px"
	 viewBox="0 0 480.85 191.33" style="enable-background:new 0 0 480.85 191.33;" xml:space="preserve">
<style type="text/css">
	.st0{fill-rule:evenodd;clip-rule:evenodd;fill:#BD1C1B;}
	.st1{fill-rule:evenodd;clip-rule:evenodd;fill:#FFFFFF;}
</style>
<g>
	<rect y="62.24" class="st0" width="480.85" height="129.09"/>
	<path class="st1" d="M102.43,134.25v3.35c0,3.58-0.65,5.96-1.94,8.39c-1.29,2.44-3.21,4.29-5.74,5.56
		c-2.53,1.27-5.3,2.16-8.29,2.69c-3,0.52-6.56,0.78-10.69,0.78c-5.74,0-12.84-1.18-21.3-2.29v-10.39
		c10.25,1.61,17.41,2.41,21.49,2.41c8.02,0,12.03-1.44,12.03-5.57v-3.26c0-1.79-0.52-3.25-1.57-4.4c-1.05-1.14-3.15-1.71-6.3-1.71
		h-7.04c-13.21,0-19.82-5.24-19.82-15.74v-4.45c0-5.19,2.18-9.03,6.53-11.53c4.35-2.5,11.31-3.75,20.88-3.75
		c4.63,0,10.89,1.25,18.8,2.05v9.9c-9.38-1.11-15.8-1.66-19.26-1.66c-4.75,0-8.02,0.4-9.81,1.2c-1.79,0.8-2.68,2.16-2.68,4.08v4.26
		c0,3.15,2.65,4.73,7.96,4.73h7.22c7.03,0,12.05,1.3,15.05,3.89C100.93,125.36,102.43,129.19,102.43,134.25z"/>
	<path class="st1" d="M152.81,125.48v13.24c0,2.9-0.46,5.39-1.39,7.46c-0.93,2.07-2.07,3.67-3.42,4.81
		c-1.36,1.14-3.13,2.02-5.32,2.64c-2.19,0.62-4.2,1-6.02,1.16c-1.82,0.15-4.03,0.23-6.62,0.23c-2.59,0-4.8-0.08-6.62-0.23
		c-1.82-0.15-3.83-0.54-6.02-1.16c-2.19-0.62-3.97-1.49-5.33-2.64c-1.36-1.14-2.5-2.74-3.42-4.81c-0.93-2.07-1.39-4.55-1.39-7.46
		v-13.24c0-3.09,0.48-5.72,1.43-7.92c0.96-2.19,2.13-3.87,3.52-5.05c1.39-1.17,3.19-2.08,5.42-2.73c2.22-0.65,4.21-1.05,5.97-1.2
		c1.76-0.15,3.9-0.23,6.43-0.23c2.53,0,4.68,0.08,6.44,0.23c1.76,0.16,3.75,0.56,5.97,1.2c2.22,0.65,4.03,1.56,5.42,2.73
		c1.39,1.17,2.56,2.86,3.52,5.05C152.33,119.76,152.81,122.4,152.81,125.48L152.81,125.48z M139.29,140.3L139.29,140.3v-16.94
		c0-2.41-0.62-4.12-1.85-5.14c-1.23-1.02-3.7-1.53-7.41-1.53c-3.7,0-6.17,0.51-7.41,1.53c-1.24,1.02-1.85,2.73-1.85,5.14v16.94
		c0,2.35,0.6,3.98,1.8,4.91c1.21,0.92,3.69,1.39,7.45,1.39c3.77,0,6.25-0.46,7.45-1.39C138.69,144.28,139.29,142.65,139.29,140.3z"
		/>
	<path class="st1" d="M197.69,136.59v5.65c0,2.22-0.42,4.13-1.25,5.74c-0.83,1.61-1.88,2.86-3.15,3.75
		c-1.26,0.89-2.92,1.59-4.95,2.08c-2.04,0.5-4,0.82-5.88,0.97c-1.88,0.15-4.09,0.23-6.62,0.23c-4.88,0-10.77-0.46-17.69-1.39v-8.98
		c8.58,1.3,14.54,1.94,17.87,1.94c2.65,0,4.71-0.26,6.16-0.79c1.45-0.52,2.18-1.56,2.18-3.1v-2.78c0-1.42-0.4-2.49-1.2-3.2
		c-0.8-0.71-2.53-1.07-5.18-1.07h-5.84c-4.69,0-8.35-0.94-10.97-2.82c-2.62-1.88-3.93-4.64-3.93-8.28v-5.46
		c0-4.08,1.95-6.88,5.83-8.43c3.89-1.54,9.38-2.32,16.48-2.32c2.96,0,8.27,0.28,15.93,0.83v8.61c-9.63-0.74-15.06-1.11-16.3-1.11
		c-3.77,0-6.15,0.26-7.13,0.79c-0.99,0.52-1.48,1.52-1.48,3.01v2.41c0,0.74,0.38,1.42,1.16,2.04c0.77,0.62,1.96,0.92,3.56,0.92h5.93
		C192.19,125.85,197.69,129.43,197.69,136.59z"/>
	<path class="st1" d="M234.9,154.56c-2.6,0.31-5.09,0.46-7.5,0.46c-2.1,0-3.94-0.08-5.51-0.23c-1.58-0.15-3.21-0.53-4.91-1.11
		c-1.7-0.59-3.09-1.36-4.17-2.32c-1.08-0.96-1.98-2.32-2.68-4.08c-0.71-1.76-1.07-3.84-1.07-6.25v-23.43h-9.07v-8.33h9.07V96.31
		h13.52v12.97h12.32v8.33h-12.32v21.11c0,3.09,0.46,5.17,1.39,6.25c0.92,1.08,2.96,1.62,6.11,1.62c1.05,0,2.66-0.16,4.82-0.46
		V154.56z"/>
	<path class="st1" d="M281.58,154.1h-13.24v-4.08c-0.99,1.79-2.41,3.07-4.26,3.84c-1.85,0.77-5.25,1.15-10.19,1.15
		c-6.05,0-10.06-0.92-12.04-2.78c-1.98-1.85-2.96-5.71-2.96-11.57c0-5.31,1.02-8.99,3.05-11.06c2.04-2.07,5.68-3.1,10.93-3.1h15.19
		v-3.06c0-2.71-0.63-4.52-1.9-5.41c-1.26-0.89-3.93-1.34-8.01-1.34c-3.83,0-9.08,0.37-15.74,1.11v-8.52
		c5.12-0.61,10.83-0.92,17.13-0.92c8.27,0,14.01,1,17.23,3.01c3.21,2.01,4.81,5.97,4.81,11.9V154.1L281.58,154.1z M268.06,142.61
		L268.06,142.61v-8.71h-9.26c-2.96,0-4.82,0.34-5.56,1.02c-0.74,0.68-1.11,2.5-1.11,5.47c0,2.9,0.39,4.66,1.15,5.28
		c0.78,0.62,2.73,0.92,5.88,0.92c1.54,0,2.68-0.01,3.42-0.04c0.74-0.03,1.54-0.11,2.41-0.23c0.86-0.12,1.47-0.32,1.8-0.6
		c0.34-0.28,0.63-0.67,0.88-1.16C267.94,144.07,268.06,143.42,268.06,142.61z"/>
	<polygon class="st1" points="330.61,109.28 314.13,154.1 300.42,154.1 283.38,109.28 297.74,109.28 307.55,140.3 317,109.28 	"/>
	<path class="st1" d="M378.98,119.56h-4.63c-3.71,0-6.5,0.57-8.38,1.71c-1.88,1.15-2.83,3.11-2.83,5.88v26.95h-13.52v-44.82h12.87
		v7.87c0.06-2.22,1.34-4.24,3.84-6.06c2.5-1.82,5.11-2.73,7.82-2.73h4.81V119.56z"/>
	<path class="st1" d="M427.57,154.1h-13.33v-5.46c-1.05,4.26-5.84,6.39-14.35,6.39c-5.93,0-10-1.06-12.22-3.19
		c-2.23-2.13-3.33-5.35-3.33-9.68v-32.87h13.52v31.02c0,2.47,0.42,4.14,1.25,5c0.83,0.86,2.82,1.3,5.97,1.3
		c3.89,0,6.36-0.41,7.41-1.25c1.05-0.84,1.58-2.51,1.58-5.05v-31.02h13.52V154.1z"/>
	<path class="st1" d="M341.97,152.56c0,0.82-0.67,1.49-1.49,1.49h-10.23c-0.82,0-1.49-0.67-1.49-1.49v-9c0-0.82,0.67-1.49,1.49-1.49
		h10.23c0.82,0,1.49,0.67,1.49,1.49V152.56z"/>
</g>
<g>
	<polygon points="63.31,3.29 54.83,3.29 54.83,17.12 56.7,17.12 56.7,4.76 63.31,4.76 	"/>
	<path d="M67.48,6.65c-1.23,0-2.27,0.48-3.12,1.45c-0.85,0.97-1.28,2.19-1.28,3.66v0.42c0,1.54,0.41,2.78,1.24,3.72
		s1.98,1.41,3.45,1.41c0.85,0,1.57-0.12,2.17-0.37s1.09-0.54,1.45-0.9l-0.73-1.22c-0.34,0.32-0.75,0.56-1.23,0.75
		c-0.48,0.18-1.03,0.27-1.67,0.27c-0.94,0-1.63-0.32-2.09-0.96C65.22,14.25,65,13.41,65,12.38l0.03-0.05h6.57v-0.99
		c0-1.42-0.34-2.55-1.03-3.41S68.85,6.65,67.48,6.65z M69.73,10.86h-4.63l-0.02-0.05c0.09-0.79,0.36-1.43,0.78-1.93
		c0.43-0.5,0.97-0.75,1.62-0.75c0.77,0,1.33,0.24,1.7,0.73c0.37,0.49,0.55,1.1,0.55,1.85V10.86z"/>
	<polygon points="80.14,11.29 75.57,11.29 75.57,6.84 73.7,6.84 73.7,17.12 75.57,17.12 75.57,12.75 80.14,12.75 80.14,17.12 
		82.01,17.12 82.01,6.84 80.14,6.84 	"/>
	<path d="M88.71,6.65c-1.23,0-2.27,0.48-3.12,1.45c-0.85,0.97-1.28,2.19-1.28,3.66v0.42c0,1.54,0.41,2.78,1.24,3.72
		s1.98,1.41,3.45,1.41c0.85,0,1.57-0.12,2.17-0.37s1.09-0.54,1.45-0.9l-0.73-1.22c-0.34,0.32-0.75,0.56-1.23,0.75
		c-0.48,0.18-1.03,0.27-1.67,0.27c-0.94,0-1.63-0.32-2.09-0.96c-0.46-0.64-0.68-1.48-0.68-2.51l0.03-0.05h6.57v-0.99
		c0-1.42-0.34-2.55-1.03-3.41S90.08,6.65,88.71,6.65z M90.96,10.86h-4.63l-0.02-0.05c0.09-0.79,0.36-1.43,0.78-1.93
		c0.43-0.5,0.97-0.75,1.62-0.75c0.77,0,1.33,0.24,1.7,0.73c0.37,0.49,0.55,1.1,0.55,1.85V10.86z"/>
	<path d="M99.66,6.65c-0.67,0-1.25,0.13-1.75,0.39s-0.92,0.64-1.25,1.13l-0.29-1.33h-1.43v14.23h1.87v-5.02
		c0.34,0.42,0.74,0.74,1.22,0.95s1.03,0.32,1.67,0.32c1.25,0,2.23-0.45,2.93-1.36c0.71-0.91,1.06-2.1,1.06-3.58v-0.2
		c0-1.66-0.35-2.99-1.06-4C101.92,7.16,100.93,6.65,99.66,6.65z M101.81,12.37c0,1.03-0.23,1.86-0.68,2.51
		c-0.46,0.65-1.13,0.97-2.01,0.97c-0.55,0-1.02-0.12-1.4-0.36s-0.69-0.57-0.92-0.99V9.54c0.23-0.42,0.54-0.76,0.92-1
		s0.84-0.37,1.38-0.37c0.89,0,1.57,0.38,2.03,1.13c0.46,0.75,0.69,1.71,0.69,2.87V12.37z"/>
	<path d="M113.96,15.05V10.1c0-1.11-0.35-1.97-1.06-2.56s-1.65-0.89-2.81-0.89c-1.18,0-2.14,0.31-2.88,0.93
		c-0.74,0.62-1.09,1.3-1.05,2.05l0.02,0.06l1.78-0.02c0-0.42,0.19-0.79,0.56-1.09c0.37-0.3,0.86-0.46,1.47-0.46
		c0.67,0,1.19,0.18,1.56,0.53c0.37,0.35,0.55,0.83,0.55,1.43v1.02h-2.03c-1.36,0-2.44,0.28-3.23,0.83c-0.79,0.55-1.19,1.32-1.19,2.3
		c0,0.96,0.28,1.72,0.84,2.26c0.56,0.55,1.38,0.82,2.45,0.82c0.65,0,1.25-0.17,1.81-0.5c0.56-0.33,1.01-0.75,1.36-1.24
		c0.01,0.24,0.03,0.48,0.06,0.72c0.03,0.24,0.08,0.51,0.15,0.82h1.93c-0.1-0.33-0.17-0.66-0.21-1.01
		C113.98,15.77,113.96,15.41,113.96,15.05z M112.09,14.03c-0.17,0.45-0.52,0.85-1.06,1.2c-0.54,0.35-1.16,0.52-1.83,0.52
		c-0.56,0-0.98-0.13-1.26-0.4c-0.28-0.27-0.43-0.63-0.43-1.08c0-0.51,0.23-0.96,0.68-1.34c0.45-0.38,1.06-0.57,1.81-0.57h2.1V14.03z
		"/>
	<path d="M117.78,11.23c0,1.56-0.13,2.66-0.39,3.31s-0.73,0.97-1.39,0.97l-0.39,0.01l-0.04,1.6h0.53c1.3,0,2.22-0.47,2.75-1.42
		s0.81-2.44,0.81-4.46V8.32h3.48v8.79h1.87V6.84h-7.23V11.23z"/>
	<path d="M131.96,10.75h-2.55V6.84h-1.87v10.28h4.43c1.2,0,2.14-0.3,2.83-0.91c0.68-0.6,1.02-1.38,1.02-2.31
		c0-0.93-0.34-1.69-1.01-2.27S133.17,10.75,131.96,10.75z M133.44,15.17c-0.32,0.32-0.82,0.48-1.49,0.48h-2.55v-3.44h2.55
		c0.66,0,1.16,0.17,1.48,0.52s0.48,0.76,0.48,1.23C133.92,14.44,133.76,14.85,133.44,15.17z"/>
	<polygon points="144.45,11.29 139.88,11.29 139.88,6.84 138.01,6.84 138.01,17.12 139.88,17.12 139.88,12.75 144.45,12.75 
		144.45,17.12 146.32,17.12 146.32,6.84 144.45,6.84 	"/>
	<path d="M153.77,10.75h-2.55V6.84h-1.87v10.28h4.43c1.2,0,2.14-0.3,2.83-0.91c0.68-0.6,1.02-1.38,1.02-2.31
		c0-0.93-0.34-1.69-1.01-2.27S154.99,10.75,153.77,10.75z M155.26,15.17c-0.32,0.32-0.82,0.48-1.49,0.48h-2.55v-3.44h2.55
		c0.66,0,1.16,0.17,1.48,0.52s0.48,0.76,0.48,1.23C155.74,14.44,155.58,14.85,155.26,15.17z"/>
	<rect x="159.43" y="6.84" width="1.87" height="10.28"/>
	<path d="M168.58,5.16c0.87,0,1.56-0.23,2.07-0.69c0.51-0.46,0.76-1.06,0.73-1.79l-0.02-0.06h-1.43c0,0.41-0.11,0.75-0.33,1.01
		s-0.56,0.39-1.02,0.39c-0.47,0-0.81-0.13-1.03-0.39c-0.22-0.26-0.32-0.6-0.32-1.02h-1.43l-0.02,0.06
		c-0.03,0.73,0.21,1.33,0.72,1.79C167.02,4.93,167.71,5.16,168.58,5.16z"/>
	<polygon points="166.33,14.15 166.28,14.13 166.28,6.84 164.42,6.84 164.42,17.12 166.28,17.12 170.82,9.8 170.87,9.82 
		170.87,17.12 172.74,17.12 172.74,6.84 170.87,6.84 	"/>
	<polygon points="182.22,14.15 182.16,14.13 182.16,6.84 180.3,6.84 180.3,17.12 182.16,17.12 186.7,9.8 186.76,9.82 186.76,17.12 
		188.63,17.12 188.63,6.84 186.76,6.84 	"/>
	<polygon points="197.81,11.29 193.23,11.29 193.23,6.84 191.36,6.84 191.36,17.12 193.23,17.12 193.23,12.75 197.81,12.75 
		197.81,17.12 199.68,17.12 199.68,6.84 197.81,6.84 	"/>
	<path d="M213.44,6.65c-0.61,0-1.15,0.1-1.63,0.3s-0.89,0.49-1.24,0.88V2.3h-1.87v5.38c-0.34-0.34-0.73-0.59-1.18-0.76
		c-0.45-0.17-0.95-0.26-1.51-0.26c-1.27,0-2.26,0.51-2.97,1.52c-0.71,1.01-1.06,2.35-1.06,4v0.2c0,1.48,0.35,2.68,1.06,3.58
		c0.71,0.91,1.69,1.36,2.94,1.36c0.57,0,1.08-0.09,1.52-0.26s0.84-0.43,1.18-0.77v4.78h1.87V16.2c0.35,0.37,0.76,0.65,1.24,0.84
		c0.48,0.19,1.03,0.28,1.64,0.28c1.25,0,2.23-0.45,2.93-1.36c0.71-0.91,1.06-2.1,1.06-3.58v-0.2c0-1.66-0.35-2.99-1.06-4
		C215.69,7.16,214.7,6.65,213.44,6.65z M208.7,14.55c-0.25,0.41-0.55,0.73-0.92,0.96c-0.36,0.23-0.8,0.34-1.31,0.34
		c-0.89,0-1.54-0.32-1.97-0.96s-0.64-1.48-0.64-2.52v-0.2c0-1.18,0.22-2.15,0.65-2.91c0.43-0.76,1.09-1.13,1.98-1.13
		c0.5,0,0.93,0.11,1.3,0.33c0.36,0.22,0.67,0.53,0.92,0.91V14.55z M215.58,12.37c0,1.03-0.23,1.87-0.68,2.52
		c-0.46,0.65-1.13,0.97-2.01,0.97c-0.55,0-1.02-0.12-1.4-0.36s-0.69-0.57-0.92-0.99V9.52c0.23-0.43,0.54-0.77,0.92-1.02
		c0.38-0.25,0.84-0.38,1.38-0.38c0.89,0,1.57,0.38,2.03,1.14c0.46,0.76,0.69,1.73,0.69,2.9V12.37z"/>
	<path d="M223.9,6.65c-1.41,0-2.53,0.49-3.35,1.48c-0.82,0.98-1.23,2.24-1.23,3.76v0.21c0,1.53,0.41,2.78,1.24,3.76
		c0.83,0.98,1.95,1.47,3.37,1.47s2.54-0.49,3.36-1.46c0.82-0.97,1.23-2.23,1.23-3.76v-0.21c0-1.53-0.41-2.78-1.24-3.76
		S225.33,6.65,223.9,6.65z M226.65,12.09c0,1.09-0.23,1.99-0.69,2.7c-0.46,0.71-1.14,1.06-2.03,1.06c-0.91,0-1.59-0.35-2.05-1.06
		s-0.69-1.61-0.69-2.7v-0.21c0-1.08,0.23-1.97,0.69-2.69s1.13-1.07,2.03-1.07c0.9,0,1.58,0.36,2.05,1.07s0.7,1.61,0.7,2.69V12.09z"
		/>
	<path d="M235.54,6.65c-0.67,0-1.25,0.13-1.75,0.39s-0.92,0.64-1.25,1.13l-0.29-1.33h-1.43v14.23h1.87v-5.02
		c0.34,0.42,0.74,0.74,1.22,0.95s1.03,0.32,1.67,0.32c1.25,0,2.23-0.45,2.93-1.36c0.71-0.91,1.06-2.1,1.06-3.58v-0.2
		c0-1.66-0.35-2.99-1.06-4C237.8,7.16,236.81,6.65,235.54,6.65z M237.69,12.37c0,1.03-0.23,1.86-0.68,2.51
		c-0.46,0.65-1.13,0.97-2.01,0.97c-0.55,0-1.02-0.12-1.4-0.36s-0.69-0.57-0.92-0.99V9.54c0.23-0.42,0.54-0.76,0.92-1
		s0.84-0.37,1.38-0.37c0.89,0,1.57,0.38,2.03,1.13c0.46,0.75,0.69,1.71,0.69,2.87V12.37z"/>
	<polygon points="247.77,14.67 247.71,14.67 244.37,6.84 241.95,6.84 241.95,17.12 243.83,17.12 243.83,9.82 243.88,9.8 
		247.09,17.12 248.38,17.12 251.54,9.97 251.59,9.98 251.59,17.12 253.46,17.12 253.46,6.84 251.13,6.84 	"/>
	<path d="M264.35,15.05V10.1c0-1.11-0.35-1.97-1.06-2.56s-1.65-0.89-2.81-0.89c-1.18,0-2.14,0.31-2.88,0.93
		c-0.74,0.62-1.09,1.3-1.05,2.05l0.02,0.06l1.78-0.02c0-0.42,0.19-0.79,0.56-1.09c0.37-0.3,0.86-0.46,1.47-0.46
		c0.67,0,1.19,0.18,1.56,0.53c0.37,0.35,0.55,0.83,0.55,1.43v1.02h-2.03c-1.36,0-2.44,0.28-3.23,0.83c-0.79,0.55-1.19,1.32-1.19,2.3
		c0,0.96,0.28,1.72,0.84,2.26c0.56,0.55,1.38,0.82,2.45,0.82c0.65,0,1.25-0.17,1.81-0.5c0.56-0.33,1.01-0.75,1.36-1.24
		c0.01,0.24,0.03,0.48,0.06,0.72c0.03,0.24,0.08,0.51,0.15,0.82h1.93c-0.1-0.33-0.17-0.66-0.21-1.01
		C264.37,15.77,264.35,15.41,264.35,15.05z M262.48,14.03c-0.16,0.45-0.52,0.85-1.06,1.2c-0.54,0.35-1.16,0.52-1.83,0.52
		c-0.56,0-0.98-0.13-1.26-0.4c-0.29-0.27-0.43-0.63-0.43-1.08c0-0.51,0.23-0.96,0.68-1.34c0.45-0.38,1.06-0.57,1.81-0.57h2.1V14.03z
		"/>
	<polygon points="275.39,6.84 273.52,6.84 273.52,15.65 268.93,15.65 268.93,6.84 267.06,6.84 267.06,17.12 274.77,17.12 
		274.77,20.48 276.65,20.48 276.65,15.65 275.39,15.65 	"/>
	<polygon points="280.55,14.15 280.49,14.13 280.49,6.84 278.63,6.84 278.63,17.12 280.49,17.12 285.03,9.8 285.09,9.82 
		285.09,17.12 286.96,17.12 286.96,6.84 285.09,6.84 	"/>
	<path d="M293.83,6.65c-1.41,0-2.53,0.49-3.35,1.48c-0.82,0.98-1.23,2.24-1.23,3.76v0.21c0,1.53,0.41,2.78,1.24,3.76
		c0.83,0.98,1.95,1.47,3.37,1.47c1.42,0,2.54-0.49,3.36-1.46c0.82-0.97,1.23-2.23,1.23-3.76v-0.21c0-1.53-0.41-2.78-1.24-3.76
		S295.26,6.65,293.83,6.65z M296.58,12.09c0,1.09-0.23,1.99-0.69,2.7c-0.46,0.71-1.14,1.06-2.03,1.06c-0.91,0-1.59-0.35-2.05-1.06
		s-0.69-1.61-0.69-2.7v-0.21c0-1.08,0.23-1.97,0.69-2.69s1.13-1.07,2.03-1.07c0.9,0,1.58,0.36,2.05,1.07
		c0.46,0.72,0.7,1.61,0.7,2.69V12.09z"/>
	<polygon points="307.19,11.29 302.61,11.29 302.61,6.84 300.74,6.84 300.74,17.12 302.61,17.12 302.61,12.75 307.19,12.75 
		307.19,17.12 309.06,17.12 309.06,6.84 307.19,6.84 	"/>
	<polygon points="318.24,11.29 313.66,11.29 313.66,6.84 311.79,6.84 311.79,17.12 313.66,17.12 313.66,12.75 318.24,12.75 
		318.24,17.12 320.11,17.12 320.11,6.84 318.24,6.84 	"/>
	<rect x="333.22" y="6.84" width="1.87" height="10.28"/>
	<path d="M327.56,10.75H325V6.84h-1.87v10.28h4.43c1.2,0,2.14-0.3,2.83-0.91s1.02-1.38,1.02-2.31c0-0.93-0.34-1.69-1.01-2.27
		C329.72,11.05,328.77,10.75,327.56,10.75z M329.04,15.17c-0.32,0.32-0.82,0.48-1.49,0.48H325v-3.44h2.55
		c0.67,0,1.16,0.17,1.48,0.52s0.48,0.76,0.48,1.23C329.52,14.44,329.36,14.85,329.04,15.17z"/>
	<path d="M342.37,5.16c0.87,0,1.56-0.23,2.07-0.69c0.51-0.46,0.76-1.06,0.73-1.79l-0.02-0.06h-1.43c0,0.41-0.11,0.75-0.33,1.01
		s-0.56,0.39-1.02,0.39c-0.47,0-0.81-0.13-1.03-0.39c-0.21-0.26-0.32-0.6-0.32-1.02h-1.43l-0.02,0.06
		c-0.03,0.73,0.21,1.33,0.72,1.79C340.8,4.93,341.5,5.16,342.37,5.16z"/>
	<polygon points="340.12,14.15 340.06,14.13 340.06,6.84 338.2,6.84 338.2,17.12 340.06,17.12 344.6,9.8 344.66,9.82 344.66,17.12 
		346.53,17.12 346.53,6.84 344.66,6.84 	"/>
	<polygon points="354.09,17.12 355.96,17.12 355.96,8.32 360.55,8.32 360.55,17.12 362.42,17.12 362.42,6.84 354.09,6.84 	"/>
	<path d="M373.12,15.05V10.1c0-1.11-0.35-1.97-1.06-2.56s-1.65-0.89-2.81-0.89c-1.18,0-2.14,0.31-2.88,0.93
		c-0.74,0.62-1.09,1.3-1.05,2.05l0.02,0.06l1.78-0.02c0-0.42,0.19-0.79,0.56-1.09c0.37-0.3,0.86-0.46,1.47-0.46
		c0.67,0,1.19,0.18,1.56,0.53c0.37,0.35,0.55,0.83,0.55,1.43v1.02h-2.03c-1.36,0-2.44,0.28-3.23,0.83c-0.79,0.55-1.19,1.32-1.19,2.3
		c0,0.96,0.28,1.72,0.84,2.26c0.56,0.55,1.38,0.82,2.45,0.82c0.65,0,1.25-0.17,1.81-0.5c0.56-0.33,1.01-0.75,1.36-1.24
		c0.01,0.24,0.03,0.48,0.06,0.72c0.03,0.24,0.08,0.51,0.15,0.82h1.93c-0.1-0.33-0.17-0.66-0.21-1.01
		C373.14,15.77,373.12,15.41,373.12,15.05z M371.25,14.03c-0.16,0.45-0.52,0.85-1.06,1.2c-0.54,0.35-1.16,0.52-1.83,0.52
		c-0.56,0-0.98-0.13-1.26-0.4c-0.29-0.27-0.43-0.63-0.43-1.08c0-0.51,0.23-0.96,0.68-1.34c0.45-0.38,1.06-0.57,1.81-0.57h2.1V14.03z
		"/>
	<path d="M380.57,6.65c-0.66,0-1.25,0.13-1.75,0.39s-0.92,0.64-1.25,1.13l-0.29-1.33h-1.43v14.23h1.87v-5.02
		c0.34,0.42,0.74,0.74,1.22,0.95c0.48,0.21,1.03,0.32,1.67,0.32c1.25,0,2.22-0.45,2.93-1.36c0.71-0.91,1.06-2.1,1.06-3.58v-0.2
		c0-1.66-0.35-2.99-1.06-4C382.83,7.16,381.84,6.65,380.57,6.65z M382.72,12.37c0,1.03-0.23,1.86-0.68,2.51
		c-0.46,0.65-1.13,0.97-2.01,0.97c-0.55,0-1.02-0.12-1.4-0.36s-0.69-0.57-0.92-0.99V9.54c0.23-0.42,0.54-0.76,0.92-1
		s0.84-0.37,1.38-0.37c0.89,0,1.57,0.38,2.03,1.13c0.46,0.75,0.69,1.71,0.69,2.87V12.37z"/>
	<polygon points="386.01,8.29 389.35,8.29 389.35,17.12 391.22,17.12 391.22,8.29 394.61,8.29 394.61,6.84 386.01,6.84 	"/>
	<polygon points="403.09,11.29 398.51,11.29 398.51,6.84 396.64,6.84 396.64,17.12 398.51,17.12 398.51,12.75 403.09,12.75 
		403.09,17.12 404.96,17.12 404.96,6.84 403.09,6.84 	"/>
	<path d="M411.66,6.65c-1.23,0-2.27,0.48-3.12,1.45c-0.85,0.97-1.28,2.19-1.28,3.66v0.42c0,1.54,0.41,2.78,1.24,3.72
		s1.98,1.41,3.45,1.41c0.85,0,1.57-0.12,2.17-0.37s1.09-0.54,1.45-0.9l-0.73-1.22c-0.34,0.32-0.75,0.56-1.23,0.75
		c-0.48,0.18-1.03,0.27-1.67,0.27c-0.94,0-1.63-0.32-2.09-0.96s-0.68-1.48-0.68-2.51l0.03-0.05h6.57v-0.99
		c0-1.42-0.34-2.55-1.03-3.41C414.06,7.08,413.03,6.65,411.66,6.65z M413.91,10.86h-4.63l-0.02-0.05c0.1-0.79,0.36-1.43,0.78-1.93
		c0.43-0.5,0.97-0.75,1.62-0.75c0.77,0,1.33,0.24,1.7,0.73c0.37,0.49,0.55,1.1,0.55,1.85V10.86z"/>
	<path d="M425.57,8.17c-0.71-1.01-1.7-1.51-2.97-1.51c-0.66,0-1.25,0.13-1.75,0.39s-0.92,0.64-1.25,1.13l-0.29-1.33h-1.43v14.23
		h1.87v-5.02c0.34,0.42,0.74,0.74,1.22,0.95c0.48,0.21,1.03,0.32,1.67,0.32c1.25,0,2.22-0.45,2.93-1.36
		c0.71-0.91,1.06-2.1,1.06-3.58v-0.2C426.63,10.51,426.28,9.18,425.57,8.17z M424.76,12.37c0,1.03-0.23,1.86-0.68,2.51
		c-0.46,0.65-1.13,0.97-2.01,0.97c-0.55,0-1.02-0.12-1.4-0.36s-0.69-0.57-0.92-0.99V9.54c0.23-0.42,0.54-0.76,0.92-1
		s0.84-0.37,1.38-0.37c0.89,0,1.57,0.38,2.03,1.13c0.46,0.75,0.69,1.71,0.69,2.87V12.37z"/>
</g>
</svg>
